<svg width="110px" height="22px" xmlns="http://www.w3.org/2000/svg" xmlns:xlink="http://www.w3.org/1999/xlink">
	<defs>
		<symbol id="hm-logo-white">
			<g fill-rule="evenodd" transform="translate(-109 0)">
				<path d="m155.51 10.658c-0.21398 1.0324-0.5047 1.9774-1.1911 1.9774-0.65983 0-0.96994-0.64772-0.96994-1.9602 0-1.6974 0.64546-3.7054 1.7884-3.7054 0.36995 0 0.56688 0.15734 0.83252 0.39802-0.062356 0.91448-0.24591 2.2575-0.45989 3.2901m-42.728 7.6894c-0.69544 0-1.2839-0.70875-1.2839-1.9428 0-2.2498 1.8172-3.8817 3.7454-4.8157-0.12137 1.3196-0.3091 2.5951-0.441 3.4658-0.23956 1.5794-0.87047 3.2927-2.0205 3.2927m56.349-5.7435c0.27818 0.21541 0.45187 0.47775 0.45187 0.88446 0 0.19704-0.066702 0.36783-0.20061 0.53829-0.28921 0.36914-1.1983 0.90497-2.1569 0.90497-1.5378 0-2.1497-0.9363-2.1497-2.4065 0-0.45412 0.092279-1.3724 0.1884-2.32 0.096292-0.9473 0.19777-1.7701 0.19777-1.9927 0-0.35438-0.15664-0.68709-0.51874-0.68709-0.64194 0-1.5189 1.0134-1.6871 2.1176-0.17804 1.1724-0.34588 3.4302-0.38584 4.0076-0.040456 0.57914-0.07272 0.81818-0.41459 0.93188-0.46106 0.15323-1.4337 0.15766-1.7546 0.15766-0.32097 0-0.54231-0.091711-0.58845-0.36783-0.022234-0.13207-0.027918-0.30614-0.021064-0.54485-0.58728 0.51056-1.3817 0.9957-2.1348 0.9957-1.0522 0-1.7404-0.82261-1.9011-1.7327-0.62205 1.1726-1.437 1.9774-2.5604 1.9774-0.96426 0-1.7445-0.43608-2.2667-1.2475-0.75913 0.67807-1.881 1.4613-3.1479 1.4613-1.2615 0-2.0285-0.76141-2.0285-2.0303 0-0.91875 0.33184-3.6048 0.37631-4.0904 0.03962-0.43148-0.13558-0.84-0.46524-0.84-0.49483 0-1.3232 0.83524-1.5443 1.8943-0.15447 0.73894-0.33234 3.3338-0.40573 3.9419-0.035106 0.29138-0.042295 0.5688-0.12922 0.75239-0.067203 0.14191-0.18991 0.22017-0.36109 0.2538-0.53495 0.10516-1.3063 0.15734-1.6985 0.15734-0.39236 0-0.59112-0.13109-0.59112-0.65625 0-0.73516 0.52158-5.1404 0.52158-5.5954 0-0.35454-0.17837-0.63-0.46992-0.63-0.55451 0-1.4949 1.1883-1.6627 2.2923-0.17821 1.1726-0.32281 3.2506-0.36293 3.8282-0.040288 0.57914-0.068541 0.83098-0.41459 0.93188-0.49483 0.14421-1.4578 0.315-1.7654 0.315-0.32097 0-0.51506-0.097125-0.58845-0.3675-0.038617-0.14241-0.040456-0.36274-0.022902-0.68775-0.66334 0.7117-1.5601 1.2338-2.3346 1.2338-0.92714 0-1.4353-0.54255-1.81-1.3652-0.65966 0.8925-1.7493 1.9688-3.0598 1.9688-1.4176 0-2.0061-1.0201-2.1488-2.0875-0.14745-1.103-0.03193-3.3408 0.18188-5.5196-0.70698-1.6406e-4 -1.4439 0.014438-2.4961 0.12502-0.12973 2.1504-0.26514 5.3378 0.2424 6.9672 0.61169 1.9645 2.1004 2.5513 3.1964 2.51 1.0957-0.041344 1.8677-0.36881 2.5643-0.75797 0.34789 0.22378 0.61068 0.55502 0.62657 0.96173 0.00769 0.19671-0.089438 0.4848-0.32382 0.693-0.7033 0.62524-2.2741 1.2892-3.959 1.3019-2.4508 0.017698-4.0143-1.2617-4.7514-3.036-0.86947-2.0928-0.78521-4.976-0.61587-8.159-1.1379 0.24938-2.3817 0.58521-3.4804 0.91432-0.12488 1.572-0.3061 3.3713-0.54064 4.7642-0.46608 2.7663-2.0228 5.4022-4.8698 5.4022-2.1763 0-3.8874-1.7074-3.8874-4.1483 0-3.9677 3.4591-6.1761 6.3952-7.3393 0.10682-2.1002 0.21649-4.7102 0.21649-5.2466 0-0.65625-0.19292-1.3002-0.94888-1.3002-0.83988 0-2.3441 1.3532-2.919 2.1243-0.74292 0-1.0241-0.49891-1.0241-1.0503 0-0.5396 0.39988-1.2219 1.1105-1.8111 1.0868-0.90136 2.8189-1.6931 4.3196-1.6931 1.4088 0 2.3252 1.032 2.4252 2.6038 0.070881 1.1133-0.006854 3.3948-0.12187 5.407 1.0691-0.28088 2.2777-0.55978 3.4515-0.78389 0.17302-2.5522 0.43465-4.98 0.70998-6.3961 0.06687-0.3442 0.26764-0.78553 0.79574-0.87052 0.32081-0.05168 1.3735-0.19688 1.7142-0.15717 0.59915 0.069727 0.65465 0.42607 0.58293 0.99373-0.11903 0.94484-0.52292 3.813-0.74275 5.9748 1.9944-0.2082 3.7226-0.22362 4.452-0.1429 0.71768 0.079242 0.80243 0.49005 0.80243 1.0938 0 0.60359-0.42261 3.8327-0.42261 4.5152 0 0.68217 0.073222 1.4173 0.70614 1.4173 0.63308 0 1.2571-0.79636 1.4711-2.1438 0.14109-0.88791 0.3835-3.2986 0.43699-3.9026 0.041626-0.4707 0.076732-0.96682 0.51707-1.0498 0.46357-0.087445 1.3106-0.21 1.7832-0.22755 0.37413-0.013781 0.67705 0.1429 0.6152 0.77011-0.053495 0.54223-0.57073 4.5675-0.57073 5.2502 0 0.68217 0.10699 1.1461 0.5617 1.1461 0.40991 0 0.84155-0.44871 1.334-1.1327 0.17018-1.6035 0.48012-4.2384 0.62222-5.4946 0.053496-0.4725 0.30308-0.66495 0.64195-0.735 0.48698-0.10041 1.2339-0.24495 1.5547-0.24495 0.32114 0 0.46842 0.26086 0.44585 0.5775-0.026581 0.3762-0.045973 0.64739-0.081748 0.96239 0.78471-1.0326 2.0327-1.89 3.1026-1.89 0.85593 0 1.4178 0.61245 1.6139 1.5574 0.85409-0.84886 1.9899-1.6657 3.1756-1.6657 0.95222 0 1.6406 0.75584 1.6406 1.806 0 0.49022-0.15163 1.426-0.25845 2.3535-0.089104 0.77224-0.24073 1.9051-0.24073 2.354 0 0.54223 0.29422 0.84853 0.69544 0.84853 0.28169 0 0.68625-0.22017 1.112-0.53714-0.11602-0.49662-0.1777-1.0577-0.1777-1.68 0-3.1149 1.5771-5.7225 4.2118-5.7225 1.0699 0 1.7582 0.54255 2.2575 0.96255 0.55284-0.1575 0.99502-0.32386 1.3429-0.32386 0.40122 0 0.58327 0.32895 0.5617 0.65625-0.053496 0.81375-0.55903 4.4801-0.55903 5.4428 0 0.55109 0.24524 0.83984 0.65532 0.83984 0.38467 0 0.86328-0.36947 1.2597-0.7473 0.13708-1.4853 0.4283-4.3125 0.5821-5.6708 0.053496-0.47234 0.30292-0.66511 0.64194-0.735 0.48714-0.10057 1.1323-0.12682 1.4532-0.12682 0.3208 0 0.46909 0.26086 0.44585 0.57734-0.017888 0.24495-0.035608 0.50761-0.071216 0.82261 0.88268-1.0764 2.1077-1.8549 3.1776-1.8549 1.0831 0 1.8259 0.8925 1.8259 1.9948 0 0.72942-0.12538 1.8987-0.24524 3.0101-0.10666 0.87938-0.19258 1.6014-0.19258 2.108 0 0.45495 0.1446 0.80079 0.53512 0.80079 0.24073 0 0.52609-0.096469 0.7491-0.21033zm21.323 4.1157c0.34973 0.22395 0.65298 0.57077 0.6722 0.97732 0.009528 0.19671-0.087098 0.4999-0.32448 0.70301-0.52141 0.44609-1.373 0.81424-2.6748 0.81424-1.6717 0-3.3027-0.73188-4.079-2.4421-1.0246-2.2572-0.62891-5.3967-0.29556-8.9078 0.16818-1.7691 0.36795-3.3193-0.274-3.315-0.64178 0.0042656-1.7983 1.4605-2.3515 3.6378-0.28954 1.1415-0.62105 4.754-0.6722 5.6487-0.022234 0.38932-0.076733 0.62426-0.16717 0.7793-0.10298 0.1762-0.25176 0.24888-0.45254 0.32747-0.31913 0.12502-1.1064 0.18457-1.534 0.18752-0.52141 0.0034453-0.70046-0.31024-0.70982-0.9053-0.010866-0.6825 0.4522-6.3213 0.62389-7.8627 0.17135-1.5412 0.15179-2.6618-0.45454-2.6576-0.94486 0.0063984-1.9828 2.3054-2.4885 4.4271-0.25076 1.0538-0.38868 2.2432-0.52743 3.6092-0.13875 1.3658-0.2857 3.4563-0.3402 4.3321-0.020228 0.32419-0.077067 0.57127-0.18439 0.73631-0.11886 0.18227-0.29322 0.28005-0.51138 0.35339-0.26614 0.089414-1.0092 0.23527-1.437 0.23805-0.42796 0.0029531-0.71701-0.22263-0.7257-0.78274-0.011869-0.73484 0.26798-4.3665 0.47996-6.7482 0.21147-2.3817 0.52927-6.5141 0.62389-7.2936 0.090107-0.74402 0.24909-1.0871 0.73924-1.1689 0.38233-0.06382 1.0229-0.17866 1.3625-0.14602 0.55936 0.053812 0.57725 0.43378 0.53228 0.95911-0.045137 0.52516-0.10248 0.93302-0.2073 1.9049 0.51807-1.0403 2.2166-3.3534 3.8749-3.3646 1.6584-0.011264 2.2647 1.6951 2.0669 3.8317 0.81163-1.6682 2.6489-3.2209 4.0575-3.2304 1.5158-0.010336 2.0146 1.3401 1.9108 2.6475-0.044468 0.56027-0.15547 1.6119-0.38818 4.2906-0.18038 2.0752-0.63125 5.1488-0.068039 6.9305 0.25143 0.79472 1.0208 1.8518 2.3222 1.8428 0.76666-0.0050859 1.0246-0.10598 1.6015-0.35339zm21.093-7.8197c-0.98967 0-1.7344 1.2881-1.9441 2.6642 0.17135 0.030516 0.35859 0.046266 0.57006 0.046266 1.3713 0 2.1024-0.88873 2.1024-1.9624 0-0.39375-0.2735-0.74812-0.72837-0.74812zm-9.0832 2.953c0.18974-0.95714 0.43465-2.3705 0.57374-3.5918-0.22084-0.25364-0.50152-0.42541-0.82283-0.42541-1.2973 0-1.9914 2.0408-2.0123 3.7862-0.014043 1.168 0.2439 1.8178 1.0109 1.8178 0.64579 0 1.0607-0.62934 1.2505-1.5868zm-9.4349-0.54059c0.17152-0.96255 0.42328-2.5901 0.53913-3.8151-0.19426-0.20984-0.4492-0.40245-0.82383-0.40245-1.3374 0-2.0691 2.2094-2.0566 3.9551 0.008024 1.1681 0.28068 1.8728 1.0473 1.8728 0.61068 0 1.1226-0.64772 1.2939-1.6103zm23.687 2.5971c1.4621 0 2.1575 0.8925 2.1575 1.8026 0 0.68217-0.28536 1.2249-0.55267 1.4349-0.83821-0.36766-1.6228-0.59505-2.7284-0.59505-0.98047 0-3.0561 0.61261-5.0533 0.61261-1.7724 0-2.931-0.76962-3.5016-2.0411-0.77502 0.56388-1.4379 0.93663-2.3267 0.93663-1.1545 0-1.6687-0.71909-1.9462-1.8742-0.77685 0.91005-1.4265 1.6188-2.6385 1.6188-1.0773 0-1.8804-0.59161-2.3438-1.5842-0.90307 0.67643-1.869 1.1609-2.6662 1.1609-0.90959 0-1.7187-0.57783-1.8742-1.7327-0.72871 0.95812-1.2398 1.6715-2.6128 1.6715-1.7654 0-2.7933-1.5926-2.8103-3.9375-0.024817-3.5483 1.7771-6.2916 4.6393-6.2916 1.0697 0 1.7829 0.57766 2.3177 1.1639 0.4629-0.10516 0.77502-0.16652 1.0682-0.19245 0.27299-0.023953 0.52309 0.018539 0.62606 0.24478 0.065198 0.14323 0.049484 0.3652 0.013709 0.67397-0.14009 1.2057-0.69778 4.8564-0.69394 5.3812 0.003678 0.525 0.15313 0.86625 0.6615 0.86625 0.24625 0 0.62239-0.21476 0.93483-0.43903-0.037949-0.29055-0.057842-0.5967-0.057842-0.91777 0-3.392 1.6771-6.0562 4.2848-6.0562 0.78922 0 1.3508 0.34125 1.7923 0.72188 0.25394-1.5049 0.49884-3.2616 0.60149-3.8018 0.10382-0.54961 0.35424-0.71318 0.7466-0.71318 0.24959 0 1.1256 0.061359 1.483 0.13125 0.35725 0.070055 0.49634 0.23625 0.49634 0.525 0 0.50745-0.61486 4.0207-0.81731 5.3506-0.18205 1.1986-0.716 4.5075-0.72219 5.0323-0.00652 0.52484 0.13658 0.87035 0.64462 0.88512 0.23471 0.0067266 0.54448-0.13076 0.81848-0.30056-0.024407-0.23084-0.036945-0.46955-0.036945-0.71646 0-2.8704 1.7689-5.933 4.8716-5.933 2.104 0 3.2096 1.4177 3.2096 2.8701 0 2.1002-1.9078 3.2794-3.7624 3.2794-0.51874 0-0.9915-0.037898-1.4265-0.11927-0.008526 1.0075 0.57006 2.0268 1.7403 2.0268 1.7299 0 4.0015-1.1443 5.4639-1.1443z"/>
			</g>
		</symbol>
	</defs>
	<use xlink:href="#hm-logo-white" x="0" y="0" fill="#FFF" />
</svg>
