<svg id="Layer_1" data-name="Layer 1" xmlns="http://www.w3.org/2000/svg" viewBox="0 0 426.65 291.34"><defs><style>.cls-1,.cls-3,.cls-4{fill:#464342;}.cls-2{fill:#fff;}.cls-2,.cls-4,.cls-5,.cls-6,.cls-7{stroke:#464342;}.cls-2,.cls-3,.cls-4,.cls-5,.cls-6,.cls-7{stroke-miterlimit:10;}.cls-3{stroke:#fff;}.cls-5,.cls-6,.cls-7,.cls-8{fill:none;}.cls-6{stroke-width:5px;}.cls-7{stroke-width:3px;}</style></defs><title>csv-data-load</title><path class="cls-1" d="M286.55,113.83A28.47,28.47,0,1,0,315,142.3,28.5,28.5,0,0,0,286.55,113.83ZM261,142.3a25.49,25.49,0,0,1,2.22-10.42l12.21,33.45A25.59,25.59,0,0,1,261,142.3Zm25.59,25.59a25.58,25.58,0,0,1-7.23-1L287,144.54l7.87,21.55a2.39,2.39,0,0,0,.18.35A25.54,25.54,0,0,1,286.55,167.89Zm3.53-37.59c1.54-.08,2.93-0.24,2.93-0.24a1.06,1.06,0,0,0-.16-2.11s-4.15.33-6.82,0.33c-2.51,0-6.74-.33-6.74-0.33a1.06,1.06,0,0,0-.16,2.11s1.31,0.16,2.68.24l4,10.93-5.6,16.8-9.32-27.72c1.54-.08,2.93-0.24,2.93-0.24a1.06,1.06,0,0,0-.16-2.11s-4.14.33-6.82,0.33l-1.65,0a25.59,25.59,0,0,1,38.67-4.82l-0.33,0a4.43,4.43,0,0,0-4.3,4.54c0,2.11,1.22,3.89,2.51,6a13.48,13.48,0,0,1,2.11,7.06c0,2.19-.84,4.73-1.95,8.27l-2.55,8.53ZM309,130a25.6,25.6,0,0,1-9.59,34.4l7.82-22.6a24.17,24.17,0,0,0,1.95-9.17A19.64,19.64,0,0,0,309,130Z" transform="translate(-89.35 -4.99)"/><rect class="cls-2" x="49.67" y="94.51" width="42.53" height="58.5" rx="4" ry="4"/><rect class="cls-2" x="58.17" y="103.01" width="42.53" height="58.5" rx="4" ry="4"/><rect class="cls-2" x="71.17" y="108.01" width="42.53" height="58.5" rx="4" ry="4"/><rect class="cls-2" x="48.17" y="114.01" width="42.53" height="58.5" rx="4" ry="4"/><rect class="cls-2" x="31.17" y="119.01" width="42.53" height="58.5" rx="4" ry="4"/><path class="cls-1" d="M124.33,200.3h-2.46v-0.89h6v0.89h-2.47v7.2h-1.06v-7.2Z" transform="translate(-89.35 -4.99)"/><path class="cls-1" d="M133.12,204.55a2.84,2.84,0,0,1-2.89,3.08,2.76,2.76,0,0,1-2.78-3,2.83,2.83,0,0,1,2.88-3.08A2.75,2.75,0,0,1,133.12,204.55Zm-4.61.06a1.81,1.81,0,1,0,3.53,0c0-1-.49-2.23-1.74-2.23S128.52,203.51,128.52,204.61Z" transform="translate(-89.35 -4.99)"/><path class="cls-1" d="M134.46,203.27c0-.6,0-1.09,0-1.57h0.94l0.06,1h0a2.13,2.13,0,0,1,1.92-1.09c0.8,0,2.05.48,2.05,2.47v3.47h-1.06v-3.35c0-.94-0.35-1.71-1.34-1.71a1.5,1.5,0,0,0-1.42,1.08,1.52,1.52,0,0,0-.07.49v3.49h-1.06v-4.23Z" transform="translate(-89.35 -4.99)"/><path class="cls-1" d="M141,206.42a2.77,2.77,0,0,0,1.39.42,0.94,0.94,0,0,0,1.13-.86c0-.5-0.3-0.78-1.08-1.07a1.86,1.86,0,0,1-1.54-1.64,1.79,1.79,0,0,1,2-1.7,2.89,2.89,0,0,1,1.43.36l-0.26.77a2.26,2.26,0,0,0-1.19-.34,0.85,0.85,0,0,0-1,.79c0,0.48.35,0.7,1.1,1a1.86,1.86,0,0,1,1.52,1.75c0,1-.79,1.74-2.17,1.74a3.31,3.31,0,0,1-1.63-.4Z" transform="translate(-89.35 -4.99)"/><path class="cls-1" d="M153.67,204.55a2.84,2.84,0,0,1-2.89,3.08,2.76,2.76,0,0,1-2.78-3,2.83,2.83,0,0,1,2.88-3.08A2.75,2.75,0,0,1,153.67,204.55Zm-4.61.06a1.81,1.81,0,1,0,3.53,0c0-1-.49-2.23-1.74-2.23S149.06,203.51,149.06,204.61Z" transform="translate(-89.35 -4.99)"/><path class="cls-1" d="M155.11,207.5v-5H154.3v-0.8h0.82v-0.28a2.74,2.74,0,0,1,.67-2,2,2,0,0,1,1.42-.54,2.45,2.45,0,0,1,.9.17l-0.14.82a1.57,1.57,0,0,0-.67-0.13c-0.9,0-1.13.79-1.13,1.68v0.31h1.4v0.8h-1.4v5h-1Z" transform="translate(-89.35 -4.99)"/><path class="cls-1" d="M166.74,207.24a5.19,5.19,0,0,1-2.13.38,3.78,3.78,0,0,1-4-4.09,4,4,0,0,1,4.22-4.25,4.32,4.32,0,0,1,1.92.36l-0.25.85a3.79,3.79,0,0,0-1.63-.34,3,3,0,0,0-3.15,3.33,2.94,2.94,0,0,0,3.11,3.25,4.17,4.17,0,0,0,1.7-.34Z" transform="translate(-89.35 -4.99)"/><path class="cls-1" d="M167.9,206.23a3.7,3.7,0,0,0,1.87.53,1.45,1.45,0,0,0,1.69-1.38c0-.76-0.43-1.19-1.52-1.61-1.32-.47-2.13-1.15-2.13-2.29a2.33,2.33,0,0,1,2.61-2.2,3.68,3.68,0,0,1,1.79.4l-0.29.85a3.22,3.22,0,0,0-1.54-.38,1.31,1.31,0,0,0-1.52,1.21c0,0.75.49,1.13,1.61,1.56,1.37,0.53,2.06,1.19,2.06,2.38s-0.92,2.33-2.83,2.33a4.17,4.17,0,0,1-2.06-.52Z" transform="translate(-89.35 -4.99)"/><path class="cls-1" d="M175.74,207.5l-2.64-8.08h1.13l1.26,4c0.35,1.09.65,2.07,0.86,3h0c0.23-.93.56-2,0.92-3l1.37-4h1.12l-2.89,8.08h-1.15Z" transform="translate(-89.35 -4.99)"/><path class="cls-1" d="M183.2,199.42h4.35v0.88h-3.31V203h3.06v0.86h-3.06v3.66h-1v-8.08Z" transform="translate(-89.35 -4.99)"/><path class="cls-1" d="M189.87,200.06a0.65,0.65,0,0,1-1.31,0,0.64,0.64,0,0,1,.66-0.66A0.63,0.63,0,0,1,189.87,200.06Zm-1.18,7.44v-5.8h1.06v5.8H188.7Z" transform="translate(-89.35 -4.99)"/><path class="cls-1" d="M191.51,199h1.06v8.52h-1.06V199Z" transform="translate(-89.35 -4.99)"/><path class="cls-1" d="M194.93,204.79a1.86,1.86,0,0,0,2,2,3.81,3.81,0,0,0,1.61-.3l0.18,0.76a4.7,4.7,0,0,1-1.93.36,2.7,2.7,0,0,1-2.85-2.93c0-1.75,1-3.13,2.72-3.13a2.46,2.46,0,0,1,2.4,2.73,4,4,0,0,1,0,.49h-4.08ZM198,204a1.5,1.5,0,0,0-1.46-1.71,1.75,1.75,0,0,0-1.62,1.71H198Z" transform="translate(-89.35 -4.99)"/><path class="cls-1" d="M200.21,206.42a2.77,2.77,0,0,0,1.39.42,0.94,0.94,0,0,0,1.13-.86c0-.5-0.3-0.78-1.08-1.07a1.86,1.86,0,0,1-1.54-1.64,1.79,1.79,0,0,1,2-1.7,2.89,2.89,0,0,1,1.43.36l-0.26.77a2.26,2.26,0,0,0-1.19-.34,0.85,0.85,0,0,0-1,.79c0,0.48.35,0.7,1.1,1a1.86,1.86,0,0,1,1.52,1.75c0,1-.79,1.74-2.17,1.74a3.31,3.31,0,0,1-1.63-.4Z" transform="translate(-89.35 -4.99)"/><path class="cls-1" d="M367.54,199.52a15,15,0,0,1,2.22-.17,4.62,4.62,0,0,1,3.27,1,3.72,3.72,0,0,1,1.14,2.9,4.27,4.27,0,0,1-1.16,3.14,5,5,0,0,1-3.57,1.16,16.68,16.68,0,0,1-1.89-.1v-8Zm1,7.15a6.61,6.61,0,0,0,1.06.06,3.11,3.11,0,0,0,3.44-3.43c0-1.91-1.07-3.12-3.27-3.12a6,6,0,0,0-1.22.11v6.38Z" transform="translate(-89.35 -4.99)"/><path class="cls-1" d="M378.71,207.5l-0.08-.73h0a2.16,2.16,0,0,1-1.78.86A1.65,1.65,0,0,1,375,206c0-1.4,1.25-2.17,3.49-2.16v-0.12a1.2,1.2,0,0,0-1.32-1.34,2.9,2.9,0,0,0-1.51.43l-0.24-.7a3.61,3.61,0,0,1,1.91-.52,2.06,2.06,0,0,1,2.21,2.37v2.17a8.14,8.14,0,0,0,.1,1.39h-1Zm-0.16-3c-1.15,0-2.46.18-2.46,1.31a0.93,0.93,0,0,0,1,1,1.44,1.44,0,0,0,1.4-1,1.12,1.12,0,0,0,.06-0.34v-1Z" transform="translate(-89.35 -4.99)"/><path class="cls-1" d="M381.13,206.42a2.77,2.77,0,0,0,1.39.42,0.94,0.94,0,0,0,1.13-.86c0-.5-0.3-0.78-1.08-1.07a1.86,1.86,0,0,1-1.54-1.64,1.79,1.79,0,0,1,2-1.7,2.9,2.9,0,0,1,1.43.36l-0.26.77a2.26,2.26,0,0,0-1.19-.34,0.85,0.85,0,0,0-1,.79c0,0.48.35,0.7,1.1,1a1.86,1.86,0,0,1,1.52,1.75c0,1-.79,1.74-2.17,1.74a3.31,3.31,0,0,1-1.63-.4Z" transform="translate(-89.35 -4.99)"/><path class="cls-1" d="M386,199h1.06v3.62h0a2,2,0,0,1,.75-0.74,2.18,2.18,0,0,1,1.08-.3c0.78,0,2,.48,2,2.48v3.45h-1.06v-3.33c0-.94-0.35-1.73-1.34-1.73a1.52,1.52,0,0,0-1.42,1.06,1.27,1.27,0,0,0-.07.5v3.5H386V199Z" transform="translate(-89.35 -4.99)"/><path class="cls-1" d="M392.64,207.5c0-.4,0-1,0-1.5v-7h1v3.65h0a2.16,2.16,0,0,1,2-1.07c1.44,0,2.46,1.2,2.45,3,0,2.08-1.31,3.11-2.6,3.11a2.07,2.07,0,0,1-1.94-1.09h0l0,1h-0.91Zm1.09-2.33a2,2,0,0,0,0,.38,1.63,1.63,0,0,0,1.58,1.24c1.1,0,1.76-.9,1.76-2.23,0-1.16-.6-2.16-1.73-2.16a1.68,1.68,0,0,0-1.61,1.3,2,2,0,0,0-.06.43v1Z" transform="translate(-89.35 -4.99)"/><path class="cls-1" d="M404.77,204.55a2.84,2.84,0,0,1-2.89,3.08,2.76,2.76,0,0,1-2.78-3,2.83,2.83,0,0,1,2.88-3.08A2.75,2.75,0,0,1,404.77,204.55Zm-4.61.06a1.81,1.81,0,1,0,3.53,0c0-1-.49-2.23-1.74-2.23S400.16,203.51,400.16,204.61Z" transform="translate(-89.35 -4.99)"/><path class="cls-1" d="M409.32,207.5l-0.08-.73h0a2.16,2.16,0,0,1-1.77.86,1.65,1.65,0,0,1-1.78-1.67c0-1.4,1.25-2.17,3.49-2.16v-0.12a1.2,1.2,0,0,0-1.32-1.34,2.89,2.89,0,0,0-1.51.43l-0.24-.7a3.61,3.61,0,0,1,1.91-.52,2.06,2.06,0,0,1,2.21,2.37v2.17a8.14,8.14,0,0,0,.1,1.39h-1Zm-0.16-3c-1.15,0-2.46.18-2.46,1.31a0.93,0.93,0,0,0,1,1,1.44,1.44,0,0,0,1.4-1,1.09,1.09,0,0,0,.06-0.34v-1Z" transform="translate(-89.35 -4.99)"/><path class="cls-1" d="M411.89,203.51c0-.68,0-1.27,0-1.81h0.92l0,1.14h0a1.74,1.74,0,0,1,1.61-1.27,1.13,1.13,0,0,1,.3,0v1a1.57,1.57,0,0,0-.36,0,1.48,1.48,0,0,0-1.42,1.36,2.92,2.92,0,0,0,0,.49v3.09h-1v-4Z" transform="translate(-89.35 -4.99)"/><path class="cls-1" d="M420.7,199v7c0,0.52,0,1.1,0,1.5H419.8l0-1h0a2.15,2.15,0,0,1-2,1.14c-1.4,0-2.48-1.19-2.48-3,0-1.93,1.19-3.12,2.6-3.12a1.94,1.94,0,0,1,1.75.89h0V199h1.05Zm-1.05,5.07a1.85,1.85,0,0,0,0-.44,1.55,1.55,0,0,0-1.52-1.22c-1.09,0-1.74,1-1.74,2.24s0.58,2.15,1.71,2.15a1.59,1.59,0,0,0,1.55-1.26,1.83,1.83,0,0,0,0-.46v-1Z" transform="translate(-89.35 -4.99)"/><path class="cls-1" d="M422.32,206.42a2.77,2.77,0,0,0,1.39.42,0.94,0.94,0,0,0,1.13-.86c0-.5-0.3-0.78-1.08-1.07a1.86,1.86,0,0,1-1.54-1.64,1.79,1.79,0,0,1,2-1.7,2.9,2.9,0,0,1,1.43.36l-0.26.77a2.26,2.26,0,0,0-1.19-.34,0.85,0.85,0,0,0-1,.79c0,0.48.35,0.7,1.1,1a1.86,1.86,0,0,1,1.52,1.75c0,1-.79,1.74-2.17,1.74a3.31,3.31,0,0,1-1.63-.4Z" transform="translate(-89.35 -4.99)"/><path class="cls-1" d="M434.85,207.5c-0.23-.23-0.44-0.46-0.76-0.79a3.31,3.31,0,0,1-2.36.92,2.29,2.29,0,0,1-2.48-2.27,2.65,2.65,0,0,1,1.58-2.36v0a2.78,2.78,0,0,1-.67-1.69,2,2,0,0,1,2.05-2A1.68,1.68,0,0,1,434,201c0,0.85-.49,1.52-1.78,2.16v0c0.68,0.79,1.45,1.68,2,2.25a5.93,5.93,0,0,0,.78-2.36h1a6.15,6.15,0,0,1-1.16,3l1.33,1.43h-1.25Zm-1.27-1.39c-0.48-.53-1.38-1.51-2.28-2.54a2,2,0,0,0-1,1.64,1.6,1.6,0,0,0,1.66,1.63A2.26,2.26,0,0,0,433.58,206.11Zm-2.46-4.93a2.27,2.27,0,0,0,.61,1.45c0.82-.47,1.34-0.9,1.34-1.58a1,1,0,0,0-.94-1A1.05,1.05,0,0,0,431.12,201.18Z" transform="translate(-89.35 -4.99)"/><path class="cls-1" d="M439.59,199.52a10.83,10.83,0,0,1,2-.17,3.31,3.31,0,0,1,2.34.66,2,2,0,0,1,.64,1.54,2.12,2.12,0,0,1-1.52,2.06v0a2,2,0,0,1,1.19,1.63,12.83,12.83,0,0,0,.62,2.22h-1.08a10.47,10.47,0,0,1-.54-1.93c-0.24-1.12-.67-1.54-1.62-1.57h-1v3.5h-1v-8Zm1,3.68h1.07a1.59,1.59,0,0,0,1.82-1.54c0-1-.75-1.5-1.86-1.51a4.3,4.3,0,0,0-1,.1v3Z" transform="translate(-89.35 -4.99)"/><path class="cls-1" d="M446.65,204.79a1.86,1.86,0,0,0,2,2,3.81,3.81,0,0,0,1.61-.3l0.18,0.75a4.7,4.7,0,0,1-1.93.36,2.7,2.7,0,0,1-2.85-2.93c0-1.75,1-3.13,2.72-3.13a2.46,2.46,0,0,1,2.4,2.73,4,4,0,0,1,0,.49h-4.08Zm3.09-.75a1.5,1.5,0,0,0-1.46-1.72,1.75,1.75,0,0,0-1.62,1.72h3.08Z" transform="translate(-89.35 -4.99)"/><path class="cls-1" d="M452.07,203.59c0-.74,0-1.34,0-1.89H453l0,1h0a2.28,2.28,0,0,1,2.06-1.13c1.4,0,2.46,1.19,2.46,3,0,2.09-1.27,3.12-2.64,3.12a2,2,0,0,1-1.79-.91h0v3.15h-1v-6.29Zm1,1.55a2.34,2.34,0,0,0,0,.43,1.63,1.63,0,0,0,1.58,1.24c1.12,0,1.76-.91,1.76-2.24a1.89,1.89,0,0,0-1.73-2.16,1.69,1.69,0,0,0-1.6,1.31,1.75,1.75,0,0,0-.07.43v1Z" transform="translate(-89.35 -4.99)"/><path class="cls-1" d="M464.16,204.55a2.84,2.84,0,0,1-2.89,3.08,2.76,2.76,0,0,1-2.78-3,2.83,2.83,0,0,1,2.88-3.08A2.75,2.75,0,0,1,464.16,204.55Zm-4.61.06a1.81,1.81,0,1,0,3.53,0c0-1-.49-2.23-1.74-2.23S459.55,203.51,459.55,204.61Z" transform="translate(-89.35 -4.99)"/><path class="cls-1" d="M465.49,203.51c0-.68,0-1.27,0-1.81h0.92l0,1.14h0a1.74,1.74,0,0,1,1.61-1.27,1.13,1.13,0,0,1,.3,0v1a1.57,1.57,0,0,0-.36,0,1.48,1.48,0,0,0-1.42,1.36,2.92,2.92,0,0,0,0,.49v3.09h-1v-4Z" transform="translate(-89.35 -4.99)"/><path class="cls-1" d="M471,200v1.67h1.51v0.8H471v3.13c0,0.72.2,1.13,0.79,1.13a2.35,2.35,0,0,0,.61-0.07l0,0.79a2.58,2.58,0,0,1-.94.14,1.46,1.46,0,0,1-1.14-.44,2.15,2.15,0,0,1-.41-1.51V202.5H469v-0.8h0.9V200.3Z" transform="translate(-89.35 -4.99)"/><path class="cls-1" d="M473.53,206.42a2.77,2.77,0,0,0,1.39.42A0.94,0.94,0,0,0,476,206c0-.5-0.3-0.78-1.08-1.07a1.86,1.86,0,0,1-1.54-1.64,1.79,1.79,0,0,1,2-1.7,2.9,2.9,0,0,1,1.43.36l-0.26.77a2.26,2.26,0,0,0-1.19-.34,0.85,0.85,0,0,0-1,.79c0,0.48.35,0.7,1.1,1a1.86,1.86,0,0,1,1.52,1.75c0,1-.79,1.74-2.17,1.74a3.31,3.31,0,0,1-1.63-.4Z" transform="translate(-89.35 -4.99)"/><rect class="cls-3" x="275.05" y="98.73" width="115.33" height="78.56" rx="2" ry="2"/><rect class="cls-2" x="277.78" y="101.16" width="109.92" height="65.2" rx="2" ry="2"/><rect class="cls-2" x="297.95" y="105.43" width="31.18" height="42.88" rx="4" ry="4"/><rect class="cls-2" x="286.27" y="116.57" width="31.18" height="42.88" rx="4" ry="4"/><rect class="cls-2" x="307.81" y="108.83" width="31.18" height="42.88" rx="4" ry="4"/><rect class="cls-2" x="353.88" y="105.43" width="31.18" height="42.88" rx="4" ry="4"/><rect class="cls-2" x="321.58" y="110.35" width="38.73" height="53.26" rx="4" ry="4"/><polygon class="cls-4" points="326.71 128.97 356.15 116.79 356.15 129.03 326.71 128.97"/><rect class="cls-4" x="324.76" y="136.98" width="2.73" height="13.9"/><rect class="cls-4" x="329.32" y="143.93" width="2.73" height="6.95"/><rect class="cls-4" x="333.87" y="141.62" width="2.73" height="9.26"/><line class="cls-5" x1="324.76" y1="153.84" x2="353.22" y2="153.84"/><line class="cls-5" x1="324.76" y1="155.66" x2="354.69" y2="155.66"/><line class="cls-5" x1="324.76" y1="157.48" x2="353.88" y2="157.48"/><line class="cls-5" x1="324.76" y1="159.3" x2="353.88" y2="159.3"/><circle class="cls-5" cx="348.81" cy="143.52" r="7.36"/><polyline class="cls-5" points="343.95 138.24 349.15 143.93 349.15 136.01"/><rect class="cls-1" x="328.4" y="171.47" width="9.1" height="15.87"/><line class="cls-6" x1="311.71" y1="187.34" x2="353.22" y2="187.34"/><line class="cls-7" x1="229.77" y1="147.55" x2="258.34" y2="153.39"/><path class="cls-1" d="M356,160.08a42.61,42.61,0,0,0-13.15,4.16l3.72-6.08-1-7.05A42.58,42.58,0,0,0,356,160.08Z" transform="translate(-89.35 -4.99)"/><line class="cls-7" x1="230.96" y1="132.13" x2="260.04" y2="128.05"/><path class="cls-1" d="M357.81,131.86a42.61,42.61,0,0,0-11,8.31l1.47-7-3.33-6.3A42.58,42.58,0,0,0,357.81,131.86Z" transform="translate(-89.35 -4.99)"/><line class="cls-7" x1="123.3" y1="154.75" x2="151.06" y2="150.86"/><path class="cls-1" d="M248.83,154.67a42.61,42.61,0,0,0-11,8.31l1.47-7L236,149.7A42.58,42.58,0,0,0,248.83,154.67Z" transform="translate(-89.35 -4.99)"/><line class="cls-7" x1="124.05" y1="123.75" x2="148.44" y2="127.19"/><path class="cls-1" d="M246.21,133.36a42.61,42.61,0,0,0-12.87,5l3.34-6.3-1.47-7A42.58,42.58,0,0,0,246.21,133.36Z" transform="translate(-89.35 -4.99)"/><line class="cls-7" x1="125.05" y1="139.36" x2="154.23" y2="138.65"/><path class="cls-1" d="M252.08,143.43a42.61,42.61,0,0,0-11.88,7l2.26-6.76L239.87,137A42.58,42.58,0,0,0,252.08,143.43Z" transform="translate(-89.35 -4.99)"/><line class="cls-8" x2="426.65" y2="291.34"/></svg>