<?xml version="1.0" encoding="utf-8"?>
<!-- Generator: Adobe Illustrator 19.2.0, SVG Export Plug-In . SVG Version: 6.00 Build 0)  -->
<svg version="1.1" id="Layer_1" xmlns="http://www.w3.org/2000/svg" xmlns:xlink="http://www.w3.org/1999/xlink" x="0px" y="0px"
	 viewBox="0 0 660.7 287" style="enable-background:new 0 0 660.7 287;" xml:space="preserve">
<style type="text/css">
	.st0{fill:#464342;}
	.st1{fill:none;stroke:#666261;stroke-miterlimit:10;stroke-dasharray:1.991,1.991;}
	.st2{fill:none;stroke:#666261;stroke-width:0.8;stroke-miterlimit:10;stroke-dasharray:2;}
	.st3{fill:none;stroke:#666261;stroke-miterlimit:10;stroke-dasharray:2;}
	.st4{fill:none;stroke:#7C7C7C;stroke-miterlimit:10;}
	.st5{fill:#7C7C7C;}
	.st6{fill:#232221;}
	.st7{font-family:'OpenSans-Semibold';}
	.st8{font-size:10px;}
</style>
<path class="st0" d="M478.8,151.7c-15.7,0-28.5,12.8-28.5,28.5c0,15.7,12.8,28.5,28.5,28.5c15.7,0,28.5-12.8,28.5-28.5
	C507.3,164.5,494.5,151.7,478.8,151.7z M453.2,180.1c0-3.7,0.8-7.2,2.2-10.4l12.2,33.4C459.1,199,453.2,190.3,453.2,180.1z
	 M478.8,205.7c-2.5,0-4.9-0.4-7.2-1l7.7-22.3l7.9,21.6c0.1,0.1,0.1,0.2,0.2,0.4C484.6,205.2,481.8,205.7,478.8,205.7z M482.3,168.1
	c1.5-0.1,2.9-0.2,2.9-0.2c1.4-0.2,1.2-2.2-0.2-2.1c0,0-4.1,0.3-6.8,0.3c-2.5,0-6.7-0.3-6.7-0.3c-1.4-0.1-1.5,2-0.2,2.1
	c0,0,1.3,0.2,2.7,0.2l4,10.9l-5.6,16.8l-9.3-27.7c1.5-0.1,2.9-0.2,2.9-0.2c1.4-0.2,1.2-2.2-0.2-2.1c0,0-4.1,0.3-6.8,0.3
	c-0.5,0-1,0-1.6,0c4.6-6.9,12.4-11.5,21.4-11.5c6.7,0,12.7,2.5,17.3,6.7c-0.1,0-0.2,0-0.3,0c-2.5,0-4.3,2.2-4.3,4.5
	c0,2.1,1.2,3.9,2.5,6c1,1.7,2.1,3.9,2.1,7.1c0,2.2-0.8,4.7-1.9,8.3l-2.6,8.5L482.3,168.1z M501.3,167.9c2,3.6,3.1,7.8,3.1,12.3
	c0,9.4-5.1,17.7-12.7,22.1l7.8-22.6c1.5-3.7,1.9-6.6,1.9-9.2C501.4,169.6,501.4,168.7,501.3,167.9z"/>
<g>
	<g>
		<path class="st1" d="M381,112.6h-32c-6.6,0-12-5.4-12-12v-4c0-6.6,5.4-12,12-12h32c6.6,0,12,5.4,12,12v4
			C393,107.2,387.6,112.6,381,112.6z"/>
	</g>
	<g>
		<path class="st1" d="M316.2,112.6h-32c-6.6,0-12-5.4-12-12v-4c0-6.6,5.4-12,12-12h32c6.6,0,12,5.4,12,12v4
			C328.2,107.2,322.8,112.6,316.2,112.6z"/>
	</g>
	<rect x="265.9" y="77.5" class="st2" width="133" height="42.2"/>
	<rect x="293" y="38.4" class="st3" width="78.7" height="16"/>
	<circle class="st3" cx="371.7" cy="178.9" r="29.7"/>
	<circle class="st3" cx="293" cy="178.9" r="29.7"/>
	<rect x="157" y="128.4" class="st3" width="78.7" height="16"/>
</g>
<g>
	<g>
		<g>
			<line class="st4" x1="332.4" y1="24.5" x2="332.4" y2="32.8"/>
			<g>
				<polygon class="st5" points="330.7,30.8 332.4,32.5 334.1,30.8 334.1,32.3 332.4,34 330.7,32.3 				"/>
			</g>
		</g>
	</g>
	<g>
		<g>
			<path class="st4" d="M332.4,58.6c1.3,3.2,12.1,3.4,16.8,6.6c2.6,1.8,2.9,4,3.2,5.5"/>
			<g>
				<polygon class="st5" points="350.2,69.3 352.3,70.4 353.4,68.2 353.8,69.6 352.7,71.7 350.6,70.7 				"/>
			</g>
		</g>
	</g>
	<g>
		<g>
			<path class="st4" d="M332.4,58.6c-1.3,3.2-12.1,3.4-16.8,6.6c-2.6,1.8-2.9,4-3.2,5.5"/>
			<g>
				<polygon class="st5" points="311.4,68.2 312.5,70.4 314.6,69.3 314.2,70.7 312,71.7 310.9,69.6 				"/>
			</g>
		</g>
	</g>
	<g>
		<g>
			<line class="st4" x1="368.6" y1="125.8" x2="371.5" y2="142.1"/>
			<g>
				<polygon class="st5" points="367.2,128 368.6,126 370.6,127.4 370.3,126 368.4,124.6 367,126.6 				"/>
			</g>
			<g>
				<polygon class="st5" points="369.5,140.4 371.5,141.8 372.8,139.8 373.1,141.2 371.7,143.2 369.8,141.8 				"/>
			</g>
		</g>
	</g>
	<g>
		<g>
			<line class="st4" x1="296.4" y1="127.1" x2="293.3" y2="143.4"/>
			<g>
				<polygon class="st5" points="294.4,128.8 296.4,127.4 297.7,129.4 298,128 296.6,126 294.6,127.4 				"/>
			</g>
			<g>
				<polygon class="st5" points="292,141.1 293.3,143.1 295.3,141.8 295,143.2 293,144.5 291.7,142.5 				"/>
			</g>
		</g>
	</g>
	<g>
		<g>
			<path class="st4" d="M408.6,98.8c10.8,1.9,64.9,12.7,69.9,40.8c0.4,2,0.5,4.2,0.3,6.4"/>
			<g>
				<polygon class="st5" points="410.2,100.9 408.9,98.9 410.8,97.5 409.4,97.3 407.4,98.6 408.8,100.6 				"/>
			</g>
		</g>
	</g>
	<g>
		<g>
			<line class="st4" x1="377.4" y1="239.6" x2="375.1" y2="216.7"/>
			<g>
				<polygon class="st5" points="377,218.5 375.1,217 373.6,218.9 373.4,217.5 374.9,215.6 376.8,217.1 				"/>
			</g>
		</g>
	</g>
	<g>
		<g>
			<line class="st4" x1="377.4" y1="239.6" x2="317.1" y2="206.3"/>
			<g>
				<polygon class="st5" points="319.7,205.8 317.4,206.4 318.1,208.7 316.8,208 316.1,205.7 318.4,205.1 				"/>
			</g>
		</g>
	</g>
	<g>
		<g>
			<line class="st4" x1="337.4" y1="239.6" x2="350" y2="212.1"/>
			<g>
				<polygon class="st5" points="350.7,214.7 349.8,212.4 347.6,213.3 348.2,211.9 350.4,211.1 351.3,213.3 				"/>
			</g>
		</g>
	</g>
	<g>
		<g>
			<line class="st4" x1="337.4" y1="239.6" x2="312.8" y2="212"/>
			<g>
				<polygon class="st5" points="315.4,212.3 313,212.2 312.8,214.6 311.9,213.5 312,211.1 314.4,211.2 				"/>
			</g>
		</g>
	</g>
	<g>
		<g>
			<path class="st4" d="M256.9,96.4c-6.3,0-50.5-1.8-59,17.1c-1,2.2-1.4,5.9-1.6,7.8"/>
			<g>
				<polygon class="st5" points="194.9,119.1 196.4,120.9 198.3,119.4 198.1,120.8 196.3,122.3 194.8,120.5 				"/>
			</g>
		</g>
	</g>
	<g>
		<g>
			<line class="st4" x1="216.3" y1="149.5" x2="216.3" y2="160.6"/>
			<g>
				<polygon class="st5" points="214.6,158.6 216.3,160.3 218,158.6 218,160.1 216.3,161.8 214.6,160.1 				"/>
			</g>
		</g>
	</g>
	<g>
		<g>
			<line class="st4" x1="176.3" y1="149.5" x2="176.3" y2="160.6"/>
			<g>
				<polygon class="st5" points="174.6,158.6 176.3,160.3 178,158.6 178,160.1 176.3,161.8 174.6,160.1 				"/>
			</g>
		</g>
	</g>
</g>
<g>
	<text transform="matrix(1 0 0 1 321.2057 19.2352)" class="st6 st7 st8">User</text>
	<text transform="matrix(1 0 0 1 298.127 50.1475)" class="st6 st7 st8">Load Balancer</text>
	<text transform="matrix(1 0 0 1 346.4081 96.3788)"><tspan x="0" y="0" class="st6 st7 st8">Express</tspan><tspan x="3.1" y="12" class="st6 st7 st8">Server</tspan></text>
	<text transform="matrix(1 0 0 1 281.6581 96.3788)"><tspan x="0" y="0" class="st6 st7 st8">Express</tspan><tspan x="3.1" y="12" class="st6 st7 st8">Server</tspan></text>
	<text transform="matrix(1 0 0 1 358.7114 174.9265)"><tspan x="0" y="0" class="st6 st7 st8">Redis</tspan><tspan x="-9.7" y="12" class="st6 st7 st8">Database</tspan></text>
	<text transform="matrix(1 0 0 1 272.2622 174.9265)"><tspan x="0" y="0" class="st6 st7 st8">Postgres</tspan><tspan x="-2" y="12" class="st6 st7 st8">Database</tspan></text>
	<text transform="matrix(1 0 0 1 312.4871 253.1022)" class="st6 st7 st8">3rd-Party Services</text>
	<text transform="matrix(1 0 0 1 162.127 140.1475)" class="st6 st7 st8">Load Balancer</text>
	<text transform="matrix(1 0 0 1 153.8018 174.7688)" class="st6 st7 st8">1st-Party Services</text>
</g>
</svg>
