<?xml version="1.0" encoding="utf-8"?>
<!-- Generator: Adobe Illustrator 19.2.0, SVG Export Plug-In . SVG Version: 6.00 Build 0)  -->
<svg version="1.1" id="Layer_1" xmlns="http://www.w3.org/2000/svg" xmlns:xlink="http://www.w3.org/1999/xlink" x="0px" y="0px"
	 viewBox="0 0 582 300" style="enable-background:new 0 0 582 300;" xml:space="preserve">
<style type="text/css">
	.st0{fill:#464342;}
	.st1{fill:#FFFFFF;stroke:#464342;stroke-miterlimit:10;}
	.st2{fill:#FFFFFF;}
	.st3{fill:#464342;stroke:#FFFFFF;stroke-miterlimit:10;}
	.st4{fill:#464342;stroke:#464342;stroke-miterlimit:10;}
	.st5{fill:none;stroke:#464342;stroke-miterlimit:10;}
	.st6{fill:none;stroke:#464342;stroke-width:5;stroke-miterlimit:10;}
	.st7{fill:none;stroke:#464342;stroke-width:3;stroke-miterlimit:10;}
	.st8{fill:#FCDE60;stroke:#464342;stroke-miterlimit:10;}
</style>
<path class="st0" d="M307.5,117.8c-15.7,0-28.5,12.8-28.5,28.5c0,15.7,12.8,28.5,28.5,28.5c15.7,0,28.5-12.8,28.5-28.5
	C336,130.6,323.2,117.8,307.5,117.8z M282,146.3c0-3.7,0.8-7.2,2.2-10.4l12.2,33.4C287.8,165.2,282,156.4,282,146.3z M307.5,171.9
	c-2.5,0-4.9-0.4-7.2-1l7.7-22.3l7.9,21.6c0.1,0.1,0.1,0.2,0.2,0.4C313.4,171.4,310.5,171.9,307.5,171.9z M311.1,134.3
	c1.5-0.1,2.9-0.2,2.9-0.2c1.4-0.2,1.2-2.2-0.2-2.1c0,0-4.1,0.3-6.8,0.3c-2.5,0-6.7-0.3-6.7-0.3c-1.4-0.1-1.5,2-0.2,2.1
	c0,0,1.3,0.2,2.7,0.2l4,10.9l-5.6,16.8l-9.3-27.7c1.5-0.1,2.9-0.2,2.9-0.2c1.4-0.2,1.2-2.2-0.2-2.1c0,0-4.1,0.3-6.8,0.3
	c-0.5,0-1,0-1.6,0c4.6-6.9,12.4-11.5,21.4-11.5c6.7,0,12.7,2.5,17.3,6.7c-0.1,0-0.2,0-0.3,0c-2.5,0-4.3,2.2-4.3,4.5
	c0,2.1,1.2,3.9,2.5,6c1,1.7,2.1,3.9,2.1,7.1c0,2.2-0.8,4.7-1.9,8.3l-2.6,8.5L311.1,134.3z M330,134c2,3.6,3.1,7.8,3.1,12.3
	c0,9.4-5.1,17.7-12.7,22.1l7.8-22.6c1.5-3.7,1.9-6.6,1.9-9.2C330.2,135.7,330.1,134.8,330,134z"/>
<g>
	<path class="st1" d="M444.3,163.4h-34.5c-2.2,0-4-1.8-4-4v-50.5c0-2.2,1.8-4,4-4h34.5c2.2,0,4,1.8,4,4v50.5
		C448.3,161.6,446.5,163.4,444.3,163.4z"/>
	<path class="st1" d="M452.8,171.9h-34.5c-2.2,0-4-1.8-4-4v-50.5c0-2.2,1.8-4,4-4h34.5c2.2,0,4,1.8,4,4v50.5
		C456.8,170.1,455,171.9,452.8,171.9z"/>
	<path class="st1" d="M465.8,176.9h-34.5c-2.2,0-4-1.8-4-4v-50.5c0-2.2,1.8-4,4-4h34.5c2.2,0,4,1.8,4,4v50.5
		C469.8,175.1,468,176.9,465.8,176.9z"/>
	<path class="st1" d="M442.8,182.9h-34.5c-2.2,0-4-1.8-4-4v-50.5c0-2.2,1.8-4,4-4h34.5c2.2,0,4,1.8,4,4v50.5
		C446.8,181.1,445,182.9,442.8,182.9z"/>
	<path class="st1" d="M425.8,187.9h-34.5c-2.2,0-4-1.8-4-4v-50.5c0-2.2,1.8-4,4-4h34.5c2.2,0,4,1.8,4,4v50.5
		C429.8,186.1,428,187.9,425.8,187.9z"/>
</g>
<g>
	<path class="st0" d="M387.1,200.2c0.5,0.3,1.2,0.5,1.9,0.5c1.1,0,1.7-0.6,1.7-1.4c0-0.8-0.4-1.2-1.5-1.6c-1.3-0.5-2.1-1.2-2.1-2.3
		c0-1.3,1-2.2,2.6-2.2c0.8,0,1.4,0.2,1.8,0.4l-0.3,0.9c-0.3-0.1-0.8-0.4-1.5-0.4c-1.1,0-1.5,0.7-1.5,1.2c0,0.8,0.5,1.1,1.6,1.6
		c1.4,0.5,2.1,1.2,2.1,2.4c0,1.2-0.9,2.3-2.8,2.3c-0.8,0-1.6-0.2-2.1-0.5L387.1,200.2z"/>
	<path class="st0" d="M393.8,198.8c0,1.4,0.9,2,2,2c0.8,0,1.2-0.1,1.6-0.3l0.2,0.8c-0.4,0.2-1,0.4-1.9,0.4c-1.8,0-2.9-1.2-2.9-2.9
		s1-3.1,2.7-3.1c1.9,0,2.4,1.7,2.4,2.7c0,0.2,0,0.4,0,0.5H393.8z M396.9,198c0-0.7-0.3-1.7-1.5-1.7c-1.1,0-1.5,1-1.6,1.7H396.9z"/>
	<path class="st0" d="M399.2,197.5c0-0.7,0-1.3,0-1.8h0.9l0,1.1h0c0.3-0.8,0.9-1.3,1.6-1.3c0.1,0,0.2,0,0.3,0v1c-0.1,0-0.2,0-0.4,0
		c-0.7,0-1.3,0.6-1.4,1.4c0,0.1,0,0.3,0,0.5v3.1h-1V197.5z"/>
	<path class="st0" d="M403.8,195.7l1.1,3.3c0.2,0.5,0.3,1,0.5,1.5h0c0.1-0.5,0.3-1,0.5-1.5l1.1-3.3h1.1l-2.3,5.8h-1l-2.2-5.8H403.8z
		"/>
	<path class="st0" d="M409.7,198.8c0,1.4,0.9,2,2,2c0.8,0,1.2-0.1,1.6-0.3l0.2,0.8c-0.4,0.2-1,0.4-1.9,0.4c-1.8,0-2.9-1.2-2.9-2.9
		s1-3.1,2.7-3.1c1.9,0,2.4,1.7,2.4,2.7c0,0.2,0,0.4,0,0.5H409.7z M412.7,198c0-0.7-0.3-1.7-1.5-1.7c-1.1,0-1.5,1-1.6,1.7H412.7z"/>
	<path class="st0" d="M415.1,197.5c0-0.7,0-1.3,0-1.8h0.9l0,1.1h0c0.3-0.8,0.9-1.3,1.6-1.3c0.1,0,0.2,0,0.3,0v1c-0.1,0-0.2,0-0.4,0
		c-0.7,0-1.3,0.6-1.4,1.4c0,0.1,0,0.3,0,0.5v3.1h-1V197.5z"/>
	<path class="st0" d="M421.4,197.8v0.8h-3v-0.8H421.4z"/>
	<path class="st0" d="M422.7,193.5c0.5-0.1,1.3-0.2,2-0.2c1.1,0,1.8,0.2,2.3,0.7c0.4,0.4,0.6,0.9,0.6,1.5c0,1.1-0.7,1.8-1.5,2.1v0
		c0.6,0.2,1,0.8,1.2,1.6c0.3,1.1,0.5,1.9,0.6,2.2h-1.1c-0.1-0.2-0.3-0.9-0.5-1.9c-0.2-1.1-0.7-1.5-1.6-1.6h-1v3.5h-1V193.5z
		 M423.7,197.2h1.1c1.1,0,1.8-0.6,1.8-1.5c0-1-0.8-1.5-1.9-1.5c-0.5,0-0.9,0-1,0.1V197.2z"/>
	<path class="st0" d="M429.7,198.8c0,1.4,0.9,2,2,2c0.8,0,1.2-0.1,1.6-0.3l0.2,0.8c-0.4,0.2-1,0.4-1.9,0.4c-1.8,0-2.9-1.2-2.9-2.9
		s1-3.1,2.7-3.1c1.9,0,2.4,1.7,2.4,2.7c0,0.2,0,0.4,0,0.5H429.7z M432.8,198c0-0.7-0.3-1.7-1.5-1.7c-1.1,0-1.5,1-1.6,1.7H432.8z"/>
	<path class="st0" d="M435.1,197.2c0-0.6,0-1.1,0-1.6h0.9l0.1,1h0c0.3-0.6,1-1.1,1.9-1.1c0.8,0,2.1,0.5,2.1,2.5v3.5H439v-3.3
		c0-0.9-0.3-1.7-1.3-1.7c-0.7,0-1.2,0.5-1.4,1.1c0,0.1-0.1,0.3-0.1,0.5v3.5h-1.1V197.2z"/>
	<path class="st0" d="M446.8,192.9v7c0,0.5,0,1.1,0,1.5h-0.9l0-1h0c-0.3,0.6-1,1.1-2,1.1c-1.4,0-2.5-1.2-2.5-3
		c0-1.9,1.2-3.1,2.6-3.1c0.9,0,1.5,0.4,1.8,0.9h0v-3.5H446.8z M445.8,198c0-0.1,0-0.3,0-0.4c-0.2-0.7-0.7-1.2-1.5-1.2
		c-1.1,0-1.7,1-1.7,2.2c0,1.2,0.6,2.1,1.7,2.1c0.7,0,1.4-0.5,1.5-1.3c0-0.1,0-0.3,0-0.5V198z"/>
	<path class="st0" d="M449.2,198.8c0,1.4,0.9,2,2,2c0.8,0,1.2-0.1,1.6-0.3l0.2,0.8c-0.4,0.2-1,0.4-1.9,0.4c-1.8,0-2.9-1.2-2.9-2.9
		s1-3.1,2.7-3.1c1.9,0,2.4,1.7,2.4,2.7c0,0.2,0,0.4,0,0.5H449.2z M452.3,198c0-0.7-0.3-1.7-1.5-1.7c-1.1,0-1.5,1-1.6,1.7H452.3z"/>
	<path class="st0" d="M454.6,197.5c0-0.7,0-1.3,0-1.8h0.9l0,1.1h0c0.3-0.8,0.9-1.3,1.6-1.3c0.1,0,0.2,0,0.3,0v1c-0.1,0-0.2,0-0.4,0
		c-0.7,0-1.3,0.6-1.4,1.4c0,0.1,0,0.3,0,0.5v3.1h-1V197.5z"/>
	<path class="st0" d="M459,198.8c0,1.4,0.9,2,2,2c0.8,0,1.2-0.1,1.6-0.3l0.2,0.8c-0.4,0.2-1,0.4-1.9,0.4c-1.8,0-2.9-1.2-2.9-2.9
		s1-3.1,2.7-3.1c1.9,0,2.4,1.7,2.4,2.7c0,0.2,0,0.4,0,0.5H459z M462.1,198c0-0.7-0.3-1.7-1.5-1.7c-1.1,0-1.5,1-1.6,1.7H462.1z"/>
	<path class="st0" d="M469.4,192.9v7c0,0.5,0,1.1,0,1.5h-0.9l0-1h0c-0.3,0.6-1,1.1-2,1.1c-1.4,0-2.5-1.2-2.5-3
		c0-1.9,1.2-3.1,2.6-3.1c0.9,0,1.5,0.4,1.8,0.9h0v-3.5H469.4z M468.4,198c0-0.1,0-0.3,0-0.4c-0.2-0.7-0.7-1.2-1.5-1.2
		c-1.1,0-1.7,1-1.7,2.2c0,1.2,0.6,2.1,1.7,2.1c0.7,0,1.4-0.5,1.5-1.3c0-0.1,0-0.3,0-0.5V198z"/>
	<path class="st0" d="M398.7,215.6c-0.4,0.2-1.2,0.4-2.1,0.4c-2.3,0-4-1.4-4-4.1c0-2.5,1.7-4.2,4.2-4.2c1,0,1.6,0.2,1.9,0.4
		l-0.3,0.9c-0.4-0.2-1-0.3-1.6-0.3c-1.9,0-3.2,1.2-3.2,3.3c0,2,1.1,3.3,3.1,3.3c0.6,0,1.3-0.1,1.7-0.3L398.7,215.6z"/>
	<path class="st0" d="M405.1,212.9c0,2.1-1.5,3.1-2.9,3.1c-1.6,0-2.8-1.2-2.8-3c0-1.9,1.3-3.1,2.9-3.1
		C403.9,209.9,405.1,211.1,405.1,212.9z M400.5,213c0,1.3,0.7,2.2,1.8,2.2c1,0,1.8-0.9,1.8-2.3c0-1-0.5-2.2-1.7-2.2
		C401,210.7,400.5,211.9,400.5,213z"/>
	<path class="st0" d="M406.4,211.6c0-0.6,0-1.1,0-1.6h0.9l0.1,1h0c0.3-0.6,1-1.1,1.9-1.1c0.8,0,2.1,0.5,2.1,2.5v3.5h-1.1v-3.3
		c0-0.9-0.3-1.7-1.3-1.7c-0.7,0-1.2,0.5-1.4,1.1c0,0.1-0.1,0.3-0.1,0.5v3.5h-1.1V211.6z"/>
	<path class="st0" d="M414.3,208.4v1.7h1.5v0.8h-1.5v3.1c0,0.7,0.2,1.1,0.8,1.1c0.3,0,0.5,0,0.6-0.1l0,0.8c-0.2,0.1-0.5,0.1-0.9,0.1
		c-0.5,0-0.9-0.2-1.1-0.4c-0.3-0.3-0.4-0.8-0.4-1.5v-3.2h-0.9v-0.8h0.9v-1.4L414.3,208.4z"/>
	<path class="st0" d="M417.5,213.2c0,1.4,0.9,2,2,2c0.8,0,1.2-0.1,1.6-0.3l0.2,0.8c-0.4,0.2-1,0.4-1.9,0.4c-1.8,0-2.9-1.2-2.9-2.9
		c0-1.8,1-3.1,2.7-3.1c1.9,0,2.4,1.7,2.4,2.7c0,0.2,0,0.4,0,0.5H417.5z M420.6,212.4c0-0.7-0.3-1.7-1.5-1.7c-1.1,0-1.5,1-1.6,1.7
		H420.6z"/>
	<path class="st0" d="M422.9,211.6c0-0.6,0-1.1,0-1.6h0.9l0.1,1h0c0.3-0.6,1-1.1,1.9-1.1c0.8,0,2.1,0.5,2.1,2.5v3.5h-1.1v-3.3
		c0-0.9-0.3-1.7-1.3-1.7c-0.7,0-1.2,0.5-1.4,1.1c0,0.1-0.1,0.3-0.1,0.5v3.5h-1.1V211.6z"/>
	<path class="st0" d="M430.8,208.4v1.7h1.5v0.8h-1.5v3.1c0,0.7,0.2,1.1,0.8,1.1c0.3,0,0.5,0,0.6-0.1l0,0.8c-0.2,0.1-0.5,0.1-0.9,0.1
		c-0.5,0-0.9-0.2-1.1-0.4c-0.3-0.3-0.4-0.8-0.4-1.5v-3.2h-0.9v-0.8h0.9v-1.4L430.8,208.4z"/>
	<path class="st0" d="M436.1,207.9c0.5-0.1,1.2-0.2,2-0.2c1,0,1.8,0.2,2.3,0.7c0.4,0.4,0.7,1,0.7,1.7c0,0.7-0.2,1.3-0.6,1.7
		c-0.6,0.6-1.5,0.9-2.5,0.9c-0.3,0-0.6,0-0.8-0.1v3.2h-1V207.9z M437.1,211.8c0.2,0.1,0.5,0.1,0.9,0.1c1.3,0,2-0.6,2-1.7
		c0-1.1-0.8-1.6-1.9-1.6c-0.5,0-0.8,0-1,0.1V211.8z"/>
	<path class="st0" d="M445.3,215.9l-0.1-0.7h0c-0.3,0.5-0.9,0.9-1.8,0.9c-1.2,0-1.8-0.8-1.8-1.7c0-1.4,1.2-2.2,3.5-2.2V212
		c0-0.5-0.1-1.3-1.3-1.3c-0.5,0-1.1,0.2-1.5,0.4l-0.2-0.7c0.5-0.3,1.2-0.5,1.9-0.5c1.8,0,2.2,1.2,2.2,2.4v2.2c0,0.5,0,1,0.1,1.4
		H445.3z M445.2,212.9c-1.2,0-2.5,0.2-2.5,1.3c0,0.7,0.5,1,1,1c0.8,0,1.2-0.5,1.4-1c0-0.1,0.1-0.2,0.1-0.3V212.9z"/>
	<path class="st0" d="M452.9,210.1c0,0.4,0,0.9,0,1.6v3.4c0,1.3-0.3,2.1-0.8,2.7c-0.6,0.5-1.4,0.7-2.1,0.7c-0.7,0-1.5-0.2-1.9-0.5
		l0.3-0.8c0.4,0.2,1,0.5,1.7,0.5c1.1,0,1.9-0.6,1.9-2v-0.6h0c-0.3,0.5-0.9,1-1.8,1c-1.4,0-2.5-1.2-2.5-2.8c0-2,1.3-3.1,2.6-3.1
		c1,0,1.6,0.5,1.8,1h0l0-0.9H452.9z M451.8,212.3c0-0.2,0-0.3-0.1-0.5c-0.2-0.6-0.7-1.1-1.5-1.1c-1,0-1.7,0.9-1.7,2.2
		c0,1.1,0.6,2.1,1.7,2.1c0.6,0,1.2-0.4,1.5-1.1c0.1-0.2,0.1-0.4,0.1-0.6V212.3z"/>
	<path class="st0" d="M455.2,213.2c0,1.4,0.9,2,2,2c0.8,0,1.2-0.1,1.6-0.3l0.2,0.8c-0.4,0.2-1,0.4-1.9,0.4c-1.8,0-2.9-1.2-2.9-2.9
		c0-1.8,1-3.1,2.7-3.1c1.9,0,2.4,1.7,2.4,2.7c0,0.2,0,0.4,0,0.5H455.2z M458.3,212.4c0-0.7-0.3-1.7-1.5-1.7c-1.1,0-1.5,1-1.6,1.7
		H458.3z"/>
	<path class="st0" d="M460.5,214.8c0.3,0.2,0.9,0.4,1.4,0.4c0.8,0,1.1-0.4,1.1-0.9c0-0.5-0.3-0.8-1.1-1.1c-1-0.4-1.5-0.9-1.5-1.6
		c0-0.9,0.8-1.7,2-1.7c0.6,0,1.1,0.2,1.4,0.4l-0.3,0.8c-0.2-0.1-0.6-0.3-1.2-0.3c-0.6,0-1,0.4-1,0.8c0,0.5,0.3,0.7,1.1,1
		c1,0.4,1.5,0.9,1.5,1.8c0,1-0.8,1.7-2.2,1.7c-0.6,0-1.2-0.2-1.6-0.4L460.5,214.8z"/>
</g>
<path class="st0" d="M312.2,20.7v39.7c0,0.5-0.4,1-1,1h-52.7c-0.5,0-1-0.5-1-1V20.7c0-0.6,0.5-1,1-1h52.7
	C311.8,19.7,312.2,20.2,312.2,20.7z"/>
<path class="st2" d="M307.4,22.4v36c0,0.5-0.5,1-1,1h-45.9c-0.6,0-1-0.5-1-1v-36c0-0.5,0.4-1,1-1h45.9
	C307,21.4,307.4,21.8,307.4,22.4z"/>
<path class="st0" d="M263.9,66.2h-17c-0.6,0-1-0.5-1-1v-29c0-0.5,0.4-1,1-1h17c0.5,0,1,0.5,1,1v29C264.9,65.8,264.5,66.2,263.9,66.2
	z"/>
<path class="st2" d="M261.9,61.6h-13c-0.6,0-1-0.5-1-1V38.1c0-0.5,0.4-1,1-1h13c0.5,0,1,0.5,1,1v22.5
	C262.9,61.1,262.5,61.6,261.9,61.6z"/>
<g>
	<path class="st0" d="M125.9,202.5c0.6-0.1,1.4-0.2,2.2-0.2c1.5,0,2.6,0.3,3.3,1c0.7,0.7,1.1,1.6,1.1,2.9c0,1.3-0.4,2.4-1.2,3.1
		c-0.8,0.8-2,1.2-3.6,1.2c-0.7,0-1.4,0-1.9-0.1V202.5z M127,209.7c0.3,0,0.6,0.1,1.1,0.1c2.2,0,3.4-1.2,3.4-3.4
		c0-1.9-1.1-3.1-3.3-3.1c-0.5,0-0.9,0-1.2,0.1V209.7z"/>
	<path class="st0" d="M134.5,207.8c0,1.4,0.9,2,2,2c0.8,0,1.2-0.1,1.6-0.3l0.2,0.8c-0.4,0.2-1,0.4-1.9,0.4c-1.8,0-2.9-1.2-2.9-2.9
		s1-3.1,2.7-3.1c1.9,0,2.4,1.7,2.4,2.7c0,0.2,0,0.4,0,0.5H134.5z M137.6,207c0-0.7-0.3-1.7-1.5-1.7c-1.1,0-1.5,1-1.6,1.7H137.6z"/>
	<path class="st0" d="M139.8,209.4c0.3,0.2,0.9,0.4,1.4,0.4c0.8,0,1.1-0.4,1.1-0.9c0-0.5-0.3-0.8-1.1-1.1c-1-0.4-1.5-0.9-1.5-1.6
		c0-0.9,0.8-1.7,2-1.7c0.6,0,1.1,0.2,1.4,0.4l-0.3,0.8c-0.2-0.1-0.6-0.3-1.2-0.3c-0.6,0-1,0.4-1,0.8c0,0.5,0.3,0.7,1.1,1
		c1,0.4,1.5,0.9,1.5,1.8c0,1-0.8,1.7-2.2,1.7c-0.6,0-1.2-0.2-1.6-0.4L139.8,209.4z"/>
	<path class="st0" d="M145.7,207.4L145.7,207.4c0.2-0.2,0.4-0.5,0.5-0.7l1.7-2h1.3l-2.2,2.4l2.6,3.4h-1.3l-2-2.8l-0.5,0.6v2.2h-1
		V202h1V207.4z"/>
	<path class="st0" d="M151.6,203v1.7h1.5v0.8h-1.5v3.1c0,0.7,0.2,1.1,0.8,1.1c0.3,0,0.5,0,0.6-0.1l0,0.8c-0.2,0.1-0.5,0.1-0.9,0.1
		c-0.5,0-0.9-0.2-1.1-0.4c-0.3-0.3-0.4-0.8-0.4-1.5v-3.2h-0.9v-0.8h0.9v-1.4L151.6,203z"/>
	<path class="st0" d="M159.5,207.5c0,2.1-1.5,3.1-2.9,3.1c-1.6,0-2.8-1.2-2.8-3c0-1.9,1.3-3.1,2.9-3.1
		C158.4,204.6,159.5,205.8,159.5,207.5z M154.9,207.6c0,1.3,0.7,2.2,1.8,2.2c1,0,1.8-0.9,1.8-2.3c0-1-0.5-2.2-1.7-2.2
		C155.4,205.4,154.9,206.5,154.9,207.6z"/>
	<path class="st0" d="M160.8,206.6c0-0.7,0-1.3,0-1.9h0.9l0,1h0c0.4-0.7,1.1-1.1,2.1-1.1c1.4,0,2.5,1.2,2.5,3c0,2.1-1.3,3.1-2.6,3.1
		c-0.8,0-1.4-0.3-1.8-0.9h0v3.2h-1V206.6z M161.9,208.1c0,0.2,0,0.3,0,0.4c0.2,0.7,0.8,1.2,1.6,1.2c1.1,0,1.8-0.9,1.8-2.2
		c0-1.2-0.6-2.2-1.7-2.2c-0.7,0-1.4,0.5-1.6,1.3c0,0.1-0.1,0.3-0.1,0.4V208.1z"/>
	<path class="st0" d="M170.3,206.9v0.8h-3v-0.8H170.3z"/>
	<path class="st0" d="M178.6,206.4c0,2.8-1.7,4.3-3.8,4.3c-2.1,0-3.6-1.7-3.6-4.1c0-2.6,1.6-4.2,3.8-4.2
		C177.2,202.3,178.6,204,178.6,206.4z M172.3,206.5c0,1.7,0.9,3.3,2.6,3.3c1.7,0,2.6-1.5,2.6-3.4c0-1.6-0.8-3.3-2.6-3.3
		C173.2,203.1,172.3,204.7,172.3,206.5z"/>
	<path class="st0" d="M179.9,206.5c0-0.7,0-1.3,0-1.8h0.9l0,1.1h0c0.3-0.8,0.9-1.3,1.6-1.3c0.1,0,0.2,0,0.3,0v1c-0.1,0-0.2,0-0.4,0
		c-0.7,0-1.3,0.6-1.4,1.4c0,0.1,0,0.3,0,0.5v3.1h-1V206.5z"/>
	<path class="st0" d="M185.1,203.1c0,0.4-0.3,0.6-0.7,0.6c-0.4,0-0.6-0.3-0.6-0.6c0-0.4,0.3-0.7,0.7-0.7
		C184.8,202.4,185.1,202.7,185.1,203.1z M183.9,210.5v-5.8h1.1v5.8H183.9z"/>
	<path class="st0" d="M187.3,207.8c0,1.4,0.9,2,2,2c0.8,0,1.2-0.1,1.6-0.3l0.2,0.8c-0.4,0.2-1,0.4-1.9,0.4c-1.8,0-2.9-1.2-2.9-2.9
		s1-3.1,2.7-3.1c1.9,0,2.4,1.7,2.4,2.7c0,0.2,0,0.4,0,0.5H187.3z M190.4,207c0-0.7-0.3-1.7-1.5-1.7c-1.1,0-1.5,1-1.6,1.7H190.4z"/>
	<path class="st0" d="M192.7,206.3c0-0.6,0-1.1,0-1.6h0.9l0.1,1h0c0.3-0.6,1-1.1,1.9-1.1c0.8,0,2.1,0.5,2.1,2.5v3.5h-1.1v-3.3
		c0-0.9-0.3-1.7-1.3-1.7c-0.7,0-1.2,0.5-1.4,1.1c0,0.1-0.1,0.3-0.1,0.5v3.5h-1.1V206.3z"/>
	<path class="st0" d="M200.6,203v1.7h1.5v0.8h-1.5v3.1c0,0.7,0.2,1.1,0.8,1.1c0.3,0,0.5,0,0.6-0.1l0,0.8c-0.2,0.1-0.5,0.1-0.9,0.1
		c-0.5,0-0.9-0.2-1.1-0.4c-0.3-0.3-0.4-0.8-0.4-1.5v-3.2h-0.9v-0.8h0.9v-1.4L200.6,203z"/>
	<path class="st0" d="M203.8,207.8c0,1.4,0.9,2,2,2c0.8,0,1.2-0.1,1.6-0.3l0.2,0.8c-0.4,0.2-1,0.4-1.9,0.4c-1.8,0-2.9-1.2-2.9-2.9
		s1-3.1,2.7-3.1c1.9,0,2.4,1.7,2.4,2.7c0,0.2,0,0.4,0,0.5H203.8z M206.9,207c0-0.7-0.3-1.7-1.5-1.7c-1.1,0-1.5,1-1.6,1.7H206.9z"/>
	<path class="st0" d="M214.3,202v7c0,0.5,0,1.1,0,1.5h-0.9l0-1h0c-0.3,0.6-1,1.1-2,1.1c-1.4,0-2.5-1.2-2.5-3c0-1.9,1.2-3.1,2.6-3.1
		c0.9,0,1.5,0.4,1.8,0.9h0V202H214.3z M213.2,207.1c0-0.1,0-0.3,0-0.4c-0.2-0.7-0.7-1.2-1.5-1.2c-1.1,0-1.7,1-1.7,2.2
		c0,1.2,0.6,2.1,1.7,2.1c0.7,0,1.4-0.5,1.5-1.3c0-0.1,0-0.3,0-0.5V207.1z"/>
	<path class="st0" d="M159.2,223.6c0.5,0.3,1.2,0.5,1.9,0.5c1.1,0,1.7-0.6,1.7-1.4c0-0.8-0.4-1.2-1.5-1.6c-1.3-0.5-2.1-1.2-2.1-2.3
		c0-1.3,1-2.2,2.6-2.2c0.8,0,1.4,0.2,1.8,0.4l-0.3,0.9c-0.3-0.1-0.8-0.4-1.5-0.4c-1.1,0-1.5,0.7-1.5,1.2c0,0.8,0.5,1.1,1.6,1.6
		c1.4,0.5,2.1,1.2,2.1,2.4c0,1.2-0.9,2.3-2.8,2.3c-0.8,0-1.6-0.2-2.1-0.5L159.2,223.6z"/>
	<path class="st0" d="M165.3,216.9c0.5-0.1,1.2-0.2,2-0.2c1,0,1.8,0.2,2.3,0.7c0.4,0.4,0.7,1,0.7,1.7c0,0.7-0.2,1.3-0.6,1.7
		c-0.6,0.6-1.5,0.9-2.5,0.9c-0.3,0-0.6,0-0.8-0.1v3.2h-1V216.9z M166.3,220.8c0.2,0.1,0.5,0.1,0.9,0.1c1.3,0,2-0.6,2-1.7
		c0-1.1-0.8-1.6-1.9-1.6c-0.5,0-0.8,0-1,0.1V220.8z"/>
	<path class="st0" d="M171.9,222.4l-0.8,2.5H170l2.7-8.1h1.3l2.8,8.1h-1.1l-0.9-2.5H171.9z M174.6,221.5l-0.8-2.3
		c-0.2-0.5-0.3-1-0.4-1.5h0c-0.1,0.5-0.3,1-0.4,1.5l-0.8,2.3H174.6z"/>
	<path class="st0" d="M177.7,223.8c0.3,0.2,0.9,0.4,1.4,0.4c0.8,0,1.1-0.4,1.1-0.9c0-0.5-0.3-0.8-1.1-1.1c-1-0.4-1.5-0.9-1.5-1.6
		c0-0.9,0.8-1.7,2-1.7c0.6,0,1.1,0.2,1.4,0.4l-0.3,0.8c-0.2-0.1-0.6-0.3-1.2-0.3c-0.6,0-1,0.4-1,0.8c0,0.5,0.3,0.7,1.1,1
		c1,0.4,1.5,0.9,1.5,1.8c0,1-0.8,1.7-2.2,1.7c-0.6,0-1.2-0.2-1.6-0.4L177.7,223.8z"/>
</g>
<g>
	<path class="st0" d="M247.8,78.7c-0.1-1.1-0.1-2.5-0.1-3.5h0c-0.3,0.9-0.6,2-1,3.1l-1.4,3.9h-0.8l-1.3-3.9
		c-0.4-1.1-0.7-2.2-0.9-3.1h0c0,1-0.1,2.4-0.2,3.6l-0.2,3.5h-1l0.6-8.1h1.3l1.4,3.9c0.3,1,0.6,1.9,0.8,2.7h0
		c0.2-0.8,0.5-1.7,0.9-2.7l1.4-3.9h1.3l0.5,8.1h-1L247.8,78.7z"/>
	<path class="st0" d="M255.9,79.3c0,2.1-1.5,3.1-2.9,3.1c-1.6,0-2.8-1.2-2.8-3c0-1.9,1.3-3.1,2.9-3.1
		C254.8,76.3,255.9,77.5,255.9,79.3z M251.3,79.3c0,1.3,0.7,2.2,1.8,2.2c1,0,1.8-0.9,1.8-2.3c0-1-0.5-2.2-1.7-2.2
		C251.9,77.1,251.3,78.2,251.3,79.3z"/>
	<path class="st0" d="M257.2,82.2c0-0.4,0-1,0-1.5v-7h1v3.6h0c0.4-0.6,1-1.1,2-1.1c1.4,0,2.5,1.2,2.4,3c0,2.1-1.3,3.1-2.6,3.1
		c-0.8,0-1.5-0.3-1.9-1.1h0l0,1H257.2z M258.3,79.9c0,0.1,0,0.3,0,0.4c0.2,0.7,0.8,1.2,1.6,1.2c1.1,0,1.8-0.9,1.8-2.2
		c0-1.2-0.6-2.2-1.7-2.2c-0.7,0-1.4,0.5-1.6,1.3c0,0.1-0.1,0.3-0.1,0.4V79.9z"/>
	<path class="st0" d="M265.3,74.8c0,0.4-0.3,0.6-0.7,0.6c-0.4,0-0.6-0.3-0.6-0.6c0-0.4,0.3-0.7,0.7-0.7
		C265,74.1,265.3,74.4,265.3,74.8z M264.1,82.2v-5.8h1.1v5.8H264.1z"/>
	<path class="st0" d="M266.9,73.7h1.1v8.5h-1.1V73.7z"/>
	<path class="st0" d="M270.3,79.5c0,1.4,0.9,2,2,2c0.8,0,1.2-0.1,1.6-0.3l0.2,0.8c-0.4,0.2-1,0.4-1.9,0.4c-1.8,0-2.9-1.2-2.9-2.9
		s1-3.1,2.7-3.1c1.9,0,2.4,1.7,2.4,2.7c0,0.2,0,0.4,0,0.5H270.3z M273.4,78.7c0-0.7-0.3-1.7-1.5-1.7c-1.1,0-1.5,1-1.6,1.7H273.4z"/>
	<path class="st0" d="M278.5,78.6v0.8h-3v-0.8H278.5z"/>
	<path class="st0" d="M286.9,78.1c0,2.8-1.7,4.3-3.8,4.3c-2.1,0-3.6-1.7-3.6-4.1c0-2.6,1.6-4.2,3.8-4.2
		C285.5,74,286.9,75.7,286.9,78.1z M280.6,78.2c0,1.7,0.9,3.3,2.6,3.3c1.7,0,2.6-1.5,2.6-3.4c0-1.6-0.8-3.3-2.6-3.3
		C281.5,74.8,280.6,76.4,280.6,78.2z"/>
	<path class="st0" d="M288.2,78.2c0-0.7,0-1.3,0-1.8h0.9l0,1.1h0c0.3-0.8,0.9-1.3,1.6-1.3c0.1,0,0.2,0,0.3,0v1c-0.1,0-0.2,0-0.4,0
		c-0.7,0-1.3,0.6-1.4,1.4c0,0.1,0,0.3,0,0.5v3.1h-1V78.2z"/>
	<path class="st0" d="M293.4,74.8c0,0.4-0.3,0.6-0.7,0.6c-0.4,0-0.6-0.3-0.6-0.6c0-0.4,0.3-0.7,0.7-0.7
		C293.1,74.1,293.4,74.4,293.4,74.8z M292.2,82.2v-5.8h1.1v5.8H292.2z"/>
	<path class="st0" d="M295.6,79.5c0,1.4,0.9,2,2,2c0.8,0,1.2-0.1,1.6-0.3l0.2,0.8c-0.4,0.2-1,0.4-1.9,0.4c-1.8,0-2.9-1.2-2.9-2.9
		s1-3.1,2.7-3.1c1.9,0,2.4,1.7,2.4,2.7c0,0.2,0,0.4,0,0.5H295.6z M298.7,78.7c0-0.7-0.3-1.7-1.5-1.7c-1.1,0-1.5,1-1.6,1.7H298.7z"/>
	<path class="st0" d="M301,78c0-0.6,0-1.1,0-1.6h0.9l0.1,1h0c0.3-0.6,1-1.1,1.9-1.1c0.8,0,2.1,0.5,2.1,2.5v3.5h-1.1v-3.3
		c0-0.9-0.3-1.7-1.3-1.7c-0.7,0-1.2,0.5-1.4,1.1c0,0.1-0.1,0.3-0.1,0.5v3.5H301V78z"/>
	<path class="st0" d="M308.9,74.7v1.7h1.5v0.8h-1.5v3.1c0,0.7,0.2,1.1,0.8,1.1c0.3,0,0.5,0,0.6-0.1l0,0.8c-0.2,0.1-0.5,0.1-0.9,0.1
		c-0.5,0-0.9-0.2-1.1-0.4c-0.3-0.3-0.4-0.8-0.4-1.5v-3.2H307v-0.8h0.9V75L308.9,74.7z"/>
	<path class="st0" d="M312.1,79.5c0,1.4,0.9,2,2,2c0.8,0,1.2-0.1,1.6-0.3l0.2,0.8c-0.4,0.2-1,0.4-1.9,0.4c-1.8,0-2.9-1.2-2.9-2.9
		s1-3.1,2.7-3.1c1.9,0,2.4,1.7,2.4,2.7c0,0.2,0,0.4,0,0.5H312.1z M315.2,78.7c0-0.7-0.3-1.7-1.5-1.7c-1.1,0-1.5,1-1.6,1.7H315.2z"/>
	<path class="st0" d="M322.5,73.7v7c0,0.5,0,1.1,0,1.5h-0.9l0-1h0c-0.3,0.6-1,1.1-2,1.1c-1.4,0-2.5-1.2-2.5-3c0-1.9,1.2-3.1,2.6-3.1
		c0.9,0,1.5,0.4,1.8,0.9h0v-3.5H322.5z M321.5,78.8c0-0.1,0-0.3,0-0.4c-0.2-0.7-0.7-1.2-1.5-1.2c-1.1,0-1.7,1-1.7,2.2
		c0,1.2,0.6,2.1,1.7,2.1c0.7,0,1.4-0.5,1.5-1.3c0-0.1,0-0.3,0-0.5V78.8z"/>
	<path class="st0" d="M270.9,95.3c0.5,0.3,1.2,0.5,1.9,0.5c1.1,0,1.7-0.6,1.7-1.4c0-0.8-0.4-1.2-1.5-1.6c-1.3-0.5-2.1-1.2-2.1-2.3
		c0-1.3,1-2.2,2.6-2.2c0.8,0,1.4,0.2,1.8,0.4l-0.3,0.9c-0.3-0.1-0.8-0.4-1.5-0.4c-1.1,0-1.5,0.7-1.5,1.2c0,0.8,0.5,1.1,1.6,1.6
		c1.4,0.5,2.1,1.2,2.1,2.4c0,1.2-0.9,2.3-2.8,2.3c-0.8,0-1.6-0.2-2.1-0.5L270.9,95.3z"/>
	<path class="st0" d="M276.9,88.6c0.5-0.1,1.2-0.2,2-0.2c1,0,1.8,0.2,2.3,0.7c0.4,0.4,0.7,1,0.7,1.7c0,0.7-0.2,1.3-0.6,1.7
		c-0.6,0.6-1.5,0.9-2.5,0.9c-0.3,0-0.6,0-0.8-0.1v3.2h-1V88.6z M278,92.5c0.2,0.1,0.5,0.1,0.9,0.1c1.3,0,2-0.6,2-1.7
		c0-1.1-0.8-1.6-1.9-1.6c-0.5,0-0.8,0-1,0.1V92.5z"/>
	<path class="st0" d="M283.6,94.1l-0.8,2.5h-1.1l2.7-8.1h1.3l2.8,8.1h-1.1l-0.9-2.5H283.6z M286.3,93.3l-0.8-2.3
		c-0.2-0.5-0.3-1-0.4-1.5h0c-0.1,0.5-0.3,1-0.4,1.5l-0.8,2.3H286.3z"/>
	<path class="st0" d="M289.4,95.5c0.3,0.2,0.9,0.4,1.4,0.4c0.8,0,1.1-0.4,1.1-0.9c0-0.5-0.3-0.8-1.1-1.1c-1-0.4-1.5-0.9-1.5-1.6
		c0-0.9,0.8-1.7,2-1.7c0.6,0,1.1,0.2,1.4,0.4l-0.3,0.8c-0.2-0.1-0.6-0.3-1.2-0.3c-0.6,0-1,0.4-1,0.8c0,0.5,0.3,0.7,1.1,1
		c1,0.4,1.5,0.9,1.5,1.8c0,1-0.8,1.7-2.2,1.7c-0.6,0-1.2-0.2-1.6-0.4L289.4,95.5z"/>
</g>
<g>
	<path class="st3" d="M225.7,185.3H114.4c-1.1,0-2-0.9-2-2v-74.6c0-1.1,0.9-2,2-2h111.3c1.1,0,2,0.9,2,2v74.6
		C227.7,184.4,226.8,185.3,225.7,185.3z"/>
	<path class="st1" d="M223,174.4H117.1c-1.1,0-2-0.9-2-2v-61.2c0-1.1,0.9-2,2-2H223c1.1,0,2,0.9,2,2v61.2
		C225,173.5,224.1,174.4,223,174.4z"/>
	<g>
		<path class="st1" d="M162.5,156.3h-23.2c-2.2,0-4-1.8-4-4v-34.9c0-2.2,1.8-4,4-4h23.2c2.2,0,4,1.8,4,4v34.9
			C166.5,154.5,164.7,156.3,162.5,156.3z"/>
		<path class="st1" d="M150.8,167.4h-23.2c-2.2,0-4-1.8-4-4v-34.9c0-2.2,1.8-4,4-4h23.2c2.2,0,4,1.8,4,4v34.9
			C154.8,165.6,153,167.4,150.8,167.4z"/>
		<path class="st1" d="M172.3,159.7h-23.2c-2.2,0-4-1.8-4-4v-34.9c0-2.2,1.8-4,4-4h23.2c2.2,0,4,1.8,4,4v34.9
			C176.3,157.9,174.5,159.7,172.3,159.7z"/>
		<path class="st1" d="M218.4,156.3h-23.2c-2.2,0-4-1.8-4-4v-34.9c0-2.2,1.8-4,4-4h23.2c2.2,0,4,1.8,4,4v34.9
			C222.4,154.5,220.6,156.3,218.4,156.3z"/>
	</g>
	<g>
		<path class="st1" d="M193.7,171.6h-30.7c-2.2,0-4-1.8-4-4v-45.3c0-2.2,1.8-4,4-4h30.7c2.2,0,4,1.8,4,4v45.3
			C197.7,169.8,195.9,171.6,193.7,171.6z"/>
		<polygon class="st4" points="164.1,137 193.5,124.8 193.5,137 		"/>
		<rect x="162.1" y="145" class="st4" width="2.7" height="13.9"/>
		<rect x="166.7" y="151.9" class="st4" width="2.7" height="7"/>
		<rect x="171.2" y="149.6" class="st4" width="2.7" height="9.3"/>
		<line class="st5" x1="162.1" y1="161.8" x2="190.6" y2="161.8"/>
		<line class="st5" x1="162.1" y1="163.7" x2="192" y2="163.7"/>
		<line class="st5" x1="162.1" y1="165.5" x2="191.2" y2="165.5"/>
		<line class="st5" x1="162.1" y1="167.3" x2="191.2" y2="167.3"/>
		<circle class="st5" cx="186.2" cy="151.5" r="7.4"/>
		<polyline class="st5" points="181.3,146.2 186.5,151.9 186.5,144 		"/>
	</g>
	<rect x="165.8" y="179.5" class="st0" width="9.1" height="15.9"/>
	<line class="st6" x1="149.1" y1="195.3" x2="190.6" y2="195.3"/>
</g>
<g>
	<g>
		<line class="st7" x1="272.2" y1="156.3" x2="243.3" y2="159.9"/>
		<g>
			<path class="st0" d="M234.8,161c3.8-2,8.4-5.1,11.1-8.1l-1.6,7l3.2,6.4C244.2,163.9,239,162,234.8,161z"/>
		</g>
	</g>
</g>
<g>
	<g>
		<line class="st7" x1="269.1" y1="139.5" x2="244.7" y2="136"/>
		<g>
			<path class="st0" d="M236.3,134.9c4.2-0.9,9.4-2.7,12.9-5l-3.3,6.3l1.5,7C244.6,140.1,240,136.9,236.3,134.9z"/>
		</g>
	</g>
</g>
<g>
	<g>
		<line class="st7" x1="342.4" y1="158.7" x2="369.9" y2="164.3"/>
		<g>
			<path class="st0" d="M378.2,166c-4.2,0.7-9.6,2.1-13.2,4.2l3.7-6.1l-1-7.1C370.2,160.2,374.6,163.7,378.2,166z"/>
		</g>
	</g>
</g>
<g>
	<g>
		<line class="st7" x1="343" y1="138.5" x2="367.4" y2="135"/>
		<g>
			<path class="st0" d="M375.8,133.9c-3.8,2-8.3,5.2-11,8.3l1.5-7l-3.3-6.3C366.4,131.1,371.6,132.9,375.8,133.9z"/>
		</g>
	</g>
</g>
<g>
	<g>
		<line class="st7" x1="344" y1="149.5" x2="373.2" y2="148.7"/>
		<g>
			<path class="st0" d="M381.7,148.5c-4,1.6-8.9,4.2-11.9,7l2.3-6.8l-2.6-6.6C372.6,144.7,377.6,147.1,381.7,148.5z"/>
		</g>
	</g>
</g>
<g>
	<g>
		<path class="st7" d="M319.6,115.7c18.7-18.5,23.9-42.8,14.6-58.4c-1.4-2.3-4.4-6.7-10.5-10.6"/>
		<g>
			<path class="st0" d="M316,42.9c4.2,0.5,9.8,0.6,13.8-0.4l-5.2,4.8l-0.9,7.1C322.2,50.6,318.9,46,316,42.9z"/>
		</g>
	</g>
</g>
<g>
	<g>
		<path class="st7" d="M328.8,118.6c20.9-21.2,34.8-55.8,21.3-71.5c-7.6-8.8-10.8-8.3-17.1-9.5"/>
		<g>
			<path class="st0" d="M324.8,35.2c4.3-0.3,9.7-1.4,13.4-3.2l-4.2,5.8l0.5,7.1C332.4,41.5,328.3,37.7,324.8,35.2z"/>
		</g>
	</g>
</g>
<polygon class="st8" points="154.8,50.7 150.2,41.5 140.1,40 147.4,32.8 145.7,22.7 154.8,27.5 163.9,22.7 162.2,32.8 169.5,40 
	159.4,41.5 "/>
<polygon class="st8" points="193.4,86.8 185.4,85.1 179.4,90.7 178.6,82.5 171.4,78.5 179,75.2 180.5,67.2 186,73.3 194.1,72.3 
	190,79.4 "/>
<polygon class="st8" points="384.5,218.3 374.5,220.7 370.8,230.3 365.4,221.5 355.2,220.9 361.9,213.1 359.3,203.1 368.8,207.1 
	377.4,201.5 376.6,211.8 "/>
<polygon class="st8" points="521.4,171.8 517.9,179.2 522,186.3 513.8,185.2 508.4,191.3 506.9,183.3 499.4,179.9 506.6,176 
	507.4,167.8 513.4,173.5 "/>
<polygon class="st8" points="94.4,182.8 86.4,181.1 80.4,186.7 79.6,178.5 72.4,174.5 80,171.2 81.5,163.2 87,169.3 95.1,168.3 
	91,175.4 "/>
<polygon class="st8" points="400.7,65.6 392.8,59 382.9,61.9 386.7,52.3 380.9,43.8 391.2,44.4 397.5,36.3 400.1,46.3 409.8,49.8 
	401.1,55.3 "/>
<g>
</g>
<g>
</g>
<g>
</g>
<g>
</g>
<g>
</g>
<g>
</g>
<g>
</g>
<g>
</g>
<g>
</g>
<g>
</g>
<g>
</g>
<g>
</g>
<g>
</g>
<g>
</g>
<g>
</g>
<g>
</g>
</svg>
