<svg xmlns="http://www.w3.org/2000/svg" width="1199.124" height="268.488" viewBox="0 0 1199.124 268.488"><path fill="none" stroke="#E5E5E5" stroke-width="2" stroke-miterlimit="10" d="M286.734 171.806v96.678m5 0v-96.678m-10 96.678v-96.678h70.334V48.66h114.774M286.734 0v76.367m5 0V0m-10 0v76.367"/><path fill="none" stroke="#E5E5E5" stroke-width="2" stroke-miterlimit="10" d="M418.434 148.2H383.43m0 5h35.004m-125.426 81.778h90.42V143.2h35.006v42.465h64.623m-99.627 44.313h-90.422m0-5h90.42M466.842 43.66H352.068M539.86 206.93h53.25m-82.052-98.63V31.358M352.068 48.66v-10h115.04v69.64h48.95V31.358h34.316l22.912-.198V0"/><path fill="none" stroke="#E5E5E5" stroke-width="2" stroke-miterlimit="10" d="M506.058 108.3V31.358h10m52.228 237.126V231.27m5 37.214V231.27m-10 37.214V231.27h97.493V153.2h-67.67"/><g fill="none" stroke="#E5E5E5" stroke-width="2" stroke-miterlimit="10"><path d="M593.447 71.663h105.195m-105.195 5h105.195V0"/><path d="M539.86 201.93h53.25V66.662h105.532"/></g><g fill="none" stroke="#E5E5E5" stroke-width="2" stroke-miterlimit="10"><path d="M908.477 79.766h62.054m0 5h-62.05V0"/><path d="M908.477 74.766h62.054v64.4"/></g><path fill="none" stroke="#E5E5E5" stroke-width="2" stroke-miterlimit="10" d="M908.478 268.486v-23m-496-15.72h69.8m-69.8 5h69.8m0-10h-69.855v43.72m624.567-164.282V36.15m5 68.054V36.15m-10 0v68.054h118.412"/><g fill="none" stroke="#E5E5E5" stroke-width="2" stroke-miterlimit="10"><path d="M874.545 144.857h142m0 5h-142V56.062h33.93"/><path d="M1081.55 104.204l-.088 98.774h-64.18v-63.12H874.544"/></g><path fill="none" stroke="#E5E5E5" stroke-width="2" stroke-miterlimit="10" d="M1081.55 153.268h68.813m0 5h-68.812m69.17-10h-69.17m-18.27 54.725v65.492m-5 0v-65.492m10 65.492v-65.492m-5-202.408v34.87m-5 0V.585m10 34.87V.585M989.617 35.9V0m5 35.9V0m104.134 104.204V35.9H984.61V0m5 268.488v-23.67m5 23.67V244.72H887.574v-56.877h67.342m29.696 80.645v-23.67m-92.038-.098v-56.877m5 56.877v-56.877m-198.932 32.48h71.88m-71.88 5h71.88m0-10h-71.88v53.165"/><g fill="none" stroke="#E5E5E5" stroke-width="2" stroke-miterlimit="10"><path d="M718.42 97.784h51.984m-51.984 5h51.984V0"/><path d="M770.404 92.784H718.42v64.484h109.327V43.66"/></g><path fill="none" stroke="#E5E5E5" stroke-width="2" stroke-miterlimit="10" d="M770.404 266.37V157.585m52.343-.317V43.66m-5 113.608V43.66M638.69 153.8v-37.747m5 37.747v-37.747m-10 37.747v-37.747h41.59v-39.39M568.286 31.16V0m-5 31.16V0M539.86 166.08h-56.803m56.803 5h-56.803v97.404"/><path fill="none" stroke="#E5E5E5" stroke-width="2" stroke-miterlimit="10" d="M483.057 171.08v-10h56.802v50.85h53.25v-10"/><g fill="none" stroke="#E5E5E5" stroke-width="2" stroke-miterlimit="10"><path d="M149.02 33.146H74.215M0 158.6h74.146l.07-120.454h74.803"/><path d="M74.216 38.146v-10h74.803v74.638h35.12"/></g><path fill="none" stroke="#E5E5E5" stroke-width="2" stroke-miterlimit="10" d="M248.723 30.255v4.53M55.48 55.742v4.53M790.277 14.53v4.532M70.78 243.25v4.53m329.333-68.728v4.53M592.288 32.796v4.53m-102.01 90.204v4.532m-114.83-21.674v4.53M98.78 137.25v4.53m154 99.938v4.53m193.605.492v4.532m230.47-229.31v4.53m17.148 75.75v4.53m227.975 106.3v4.53m255.3-68.54v4.53m-66 43.47v4.53m65-145.53v4.53m-137-44.062v4.532m17.502 110.52v4.53m-1006-3.86v4.53M894.277 78.25v4.53m-158 95.75v4.532m-252.13-105.51h4.53m-121.93-56.49h4.53M146.752 139.927h4.53M132.78 239.25h4.53m457.436 8.812h4.53m192.61-116.737h4.53M735.94 66.733h4.532m-64.33 164.2h4.53M930.41 113.395h4.53M808.916 178.25h4.53m168.804-2.668h4.53m8.53-109.492h4.53m94.41-44.508h4.53m-644.034 142.48h4.53m-11.11 44.42h4.53M874.113 22.917h4.532m-230.94 25.636h4.53m490.99-4.403h4.53m-285.01 203.912h4.53m270.47 3h4.53m-837.19-93.794h4.53M85.745 13.062h4.53M560.4 103.966h4.532m-33.306 141.52h4.53m-184.79 7.19h4.53M184.143 186.59h38.12m-38.12-5h38.12v86.895m36.514-112.712V76.366m-5 79.408V76.366h98.46"/><path fill="none" stroke="#E5E5E5" stroke-width="2" stroke-miterlimit="10" d="M184.102 155.815h79.676V76.367M0 90.204h74.216M0 85.204h74.216M0 95.204h74.216m48.67 119.3h-85.41m85.408-5H37.478v58.984m0-267.896v84.632"/><path fill="none" stroke="#E5E5E5" stroke-width="2" stroke-miterlimit="10" d="M37.478 219.505h85.407l.04-108.98h-48.78m148.078-47.33h-38.12m38.12-5l-38.12-.187.04 133.58h38.12"/><path fill="none" stroke="#E5E5E5" stroke-width="2" stroke-miterlimit="10" d="M222.264 0v41.77l-.04 26.425H184.1m966.302 22.01h48.722m-48.722 5h48.722m-75.966 130.22h43.556m0-5h-43.556v48.06"/><path fill="none" stroke="#E5E5E5" stroke-width="2" stroke-miterlimit="10" d="M1123.158 230.425h43.556V178.6m32.41 0h-48.722V85.203h48.722M412.424 0v39.654m-148.646 87.59h88.46m418.284-83.74l71.018.157V0m113.376 149.857v94.864M1123.158 0v70.91h-24.412M841.54 268.486v-68.84h-71.018M50.146 158.6v51.046M425.95 48.66v59.64h-19.17v34.9m112.74 17.88v-33.55h73.59M621.77 0v66.663m0 163.762v38.06m96.65-134.748h-32.64v49.325h-25.012m-549.15 36.443v48.983m0-268.488v27.57"/><circle cx="111.618" cy="74.161" r="5.332" fill="none" stroke="#E5E5E5" stroke-width="2" stroke-miterlimit="10"/><circle cx="319.781" cy="31.357" r="5.332" fill="none" stroke="#E5E5E5" stroke-width="2" stroke-miterlimit="10"/><circle cx="397.449" cy="78.254" r="5.332" fill="none" stroke="#E5E5E5" stroke-width="2" stroke-miterlimit="10"/><circle cx="563.951" cy="170.604" r="5.332" fill="none" stroke="#E5E5E5" stroke-width="2" stroke-miterlimit="10"/><circle cx="747.315" cy="130.904" r="5.332" fill="none" stroke="#E5E5E5" stroke-width="2" stroke-miterlimit="10"/><circle cx="986.782" cy="207.585" r="5.332" fill="none" stroke="#E5E5E5" stroke-width="2" stroke-miterlimit="10"/><circle cx="1171.696" cy="24.984" r="5.332" fill="none" stroke="#E5E5E5" stroke-width="2" stroke-miterlimit="10"/><circle cx="253.778" cy="201.979" r="5.332" fill="none" stroke="#E5E5E5" stroke-width="2" stroke-miterlimit="10"/><circle cx="337.225" cy="205.984" r="5.332" fill="none" stroke="#E5E5E5" stroke-width="2" stroke-miterlimit="10"/><circle cx="627.101" cy="192.993" r="5.332" fill="none" stroke="#E5E5E5" stroke-width="2" stroke-miterlimit="10"/><circle cx="551.731" cy="68.073" r="5.332" fill="none" stroke="#E5E5E5" stroke-width="2" stroke-miterlimit="10"/><circle cx="735.39" cy="27.79" r="5.332" fill="none" stroke="#E5E5E5" stroke-width="2" stroke-miterlimit="10"/><circle cx="731.586" cy="244.754" r="5.332" fill="none" stroke="#E5E5E5" stroke-width="2" stroke-miterlimit="10"/><circle cx="853.938" cy="175.097" r="5.332" fill="none" stroke="#E5E5E5" stroke-width="2" stroke-miterlimit="10"/><circle cx="1003.348" cy="106.353" r="5.332" fill="none" stroke="#E5E5E5" stroke-width="2" stroke-miterlimit="10"/><circle cx="1127.506" cy="128.098" r="5.332" fill="none" stroke="#E5E5E5" stroke-width="2" stroke-miterlimit="10"/><circle cx="1094.538" cy="228.406" r="5.332" fill="none" stroke="#E5E5E5" stroke-width="2" stroke-miterlimit="10"/><circle cx="1176.448" cy="245.485" r="5.332" fill="none" stroke="#E5E5E5" stroke-width="2" stroke-miterlimit="10"/><circle cx="93.448" cy="176.916" r="5.332" fill="none" stroke="#E5E5E5" stroke-width="2" stroke-miterlimit="10"/><circle cx="22.811" cy="121.91" r="5.332" fill="none" stroke="#E5E5E5" stroke-width="2" stroke-miterlimit="10"/><path fill="none" stroke="#E5E5E5" stroke-width="2" stroke-miterlimit="10" d="M16.778 33.316V45.99m1.102 159.992v12.675M220.576 97.81v12.673m-33.35-86.873v12.676m2.884 171.954l.002 12.676m255.502-105.442v12.674m-136-31.7v12.674m175.96-92.072v12.674m25.483 169.922v12.674M615.54 96.463v12.675m180.058-32.012V89.8m56.117 21.698v12.675M801.91 231.446l.002 12.675m152.24-220.64v12.67m128.59 26.08v12.674M647.28 14.76v12.676m486.22 159.22v12.674m40.685-83.522v12.674M1043.99 157.34l.002 12.674m-17.54 62.64v12.674m-804.23-6.33h-67.076v-47.86h-32.26"/></svg>