<?xml version="1.0" encoding="utf-8"?>
<!-- Generator: Adobe Illustrator 19.2.0, SVG Export Plug-In . SVG Version: 6.00 Build 0)  -->
<svg version="1.1" id="Layer_1" xmlns="http://www.w3.org/2000/svg" xmlns:xlink="http://www.w3.org/1999/xlink" x="0px" y="0px"
	 viewBox="0 0 1199.1 268.5" style="enable-background:new 0 0 1199.1 268.5;" xml:space="preserve">
<style type="text/css">
	.st0{fill:none;stroke:#E8E8E8;stroke-width:2;stroke-miterlimit:10;}
</style>
<path class="st0" d="M286.7,171.8v96.7 M291.7,268.5v-96.7 M281.7,268.5v-96.7h70.3V48.7h114.8 M286.7,0v76.4 M291.7,76.4V0
	 M281.7,0v76.4"/>
<path class="st0" d="M418.4,148.2h-35 M383.4,153.2h35 M293,235h90.4v-91.8h35v42.5h64.6 M383.4,230H293 M293,225h90.4 M466.8,43.7
	H352.1 M539.9,206.9h53.2 M511.1,108.3V31.4 M352.1,48.7v-10h115v69.6h48.9V31.4h34.3l22.9-0.2V0"/>
<path class="st0" d="M506.1,108.3V31.4h10 M568.3,268.5v-37.2 M573.3,268.5v-37.2 M563.3,268.5v-37.2h97.5v-78.1h-67.7"/>
<g>
	<path class="st0" d="M593.4,71.7h105.2 M593.4,76.7h105.2V0"/>
	<path class="st0" d="M539.9,201.9h53.2V66.7h105.5"/>
</g>
<g>
	<path class="st0" d="M908.5,79.8h62.1 M970.5,84.8h-62V0"/>
	<path class="st0" d="M908.5,74.8h62.1v64.4"/>
</g>
<path class="st0" d="M908.5,268.5v-23 M412.5,229.8h69.8 M412.5,234.8h69.8 M482.3,224.8h-69.9v43.7 M1037,104.2V36.2 M1042,104.2
	V36.2 M1032,36.2v68.1h118.4"/>
<g>
	<path class="st0" d="M874.5,144.9h142 M1016.5,149.9h-142V56.1h33.9"/>
	<path class="st0" d="M1081.6,104.2l-0.1,98.8h-64.2v-63.1H874.5"/>
</g>
<path class="st0" d="M1081.6,153.3h68.8 M1150.4,158.3h-68.8 M1150.7,148.3h-69.2 M1063.3,203v65.5 M1058.3,268.5V203 M1068.3,268.5
	V203 M1063.3,0.6v34.9 M1058.3,35.5V0.6 M1068.3,35.5V0.6 M989.6,35.9V0 M994.6,35.9V0 M1098.8,104.2V35.9H984.6V0 M989.6,268.5
	v-23.7 M994.6,268.5v-23.8h-107v-56.9h67.3 M984.6,268.5v-23.7 M892.6,244.7v-56.9 M897.6,244.7v-56.9 M698.6,220.3h71.9
	 M698.6,225.3h71.9 M770.5,215.3h-71.9v53.2"/>
<g>
	<path class="st0" d="M718.4,97.8h52 M718.4,102.8h52V0"/>
	<path class="st0" d="M770.4,92.8h-52v64.5h109.3V43.7"/>
</g>
<path class="st0" d="M770.4,268.5V157.6 M822.7,157.3V43.7 M817.7,157.3V43.7 M638.7,153.8v-37.7 M643.7,153.8v-37.7 M633.7,153.8
	v-37.7h41.6V76.7 M568.3,31.2V0 M563.3,31.2V0 M539.9,166.1h-56.8 M539.9,171.1h-56.8v97.4"/>
<path class="st0" d="M483.1,171.1v-10h56.8v50.8h53.2v-10"/>
<g>
	<path class="st0" d="M149,33.1H74.2 M0,158.6h74.1l0.1-120.5H149"/>
	<path class="st0" d="M74.2,38.1v-10H149v74.6h35.1"/>
</g>
<path class="st0" d="M248.7,30.3v4.5 M55.5,55.7v4.5 M790.3,14.5v4.5 M70.8,243.2v4.5 M400.1,179.1v4.5 M592.3,32.8v4.5
	 M490.3,127.5v4.5 M375.4,110.4v4.5 M98.8,137.2v4.5 M252.8,241.7v4.5 M446.4,246.7v4.5 M676.9,22v4.5 M694,102.2v4.5 M922,213.1
	v4.5 M1177.3,149.1v4.5 M1111.3,197.1v4.5 M1176.3,56.1v4.5 M1039.3,16.5v4.5 M1056.8,131.6v4.5 M50.8,132.3v4.5 M894.3,78.2v4.5
	 M736.3,178.5v4.5 M484.1,77.6h4.5 M366.7,21.1h4.5 M146.8,139.9h4.5 M132.8,239.2h4.5 M594.7,248.1h4.5 M791.9,131.3h4.5
	 M735.9,66.7h4.5 M676.1,230.9h4.5 M930.4,113.4h4.5 M808.9,178.2h4.5 M982.3,175.6h4.5 M995.3,66.1h4.5 M1094.3,21.6h4.5
	 M454.7,164.1h4.5 M448.2,208.5h4.5 M874.1,22.9h4.5 M647.7,48.6h4.5 M1143.2,44.2h4.5 M862.7,248.1h4.5 M1137.7,251.1h4.5
	 M305.1,157.3h4.5 M85.7,13.1h4.5 M560.4,104h4.5 M531.6,245.5h4.5 M351.4,252.7h4.5 M184.1,186.6h38.1 M184.1,181.6h38.1v86.9
	 M258.8,155.8V76.4 M253.8,155.8V76.4h98.5"/>
<path class="st0" d="M184.1,155.8h79.7V76.4 M0,90.2h74.2 M0,85.2h74.2 M0,95.2h74.2 M122.9,214.5H37.5 M122.9,209.5H37.5v59
	 M37.5,0.6v84.6"/>
<path class="st0" d="M37.5,219.5h85.4l0-109H74.1 M222.2,63.2h-38.1 M222.2,58.2L184.1,58l0,133.6h38.1"/>
<path class="st0" d="M222.3,0v41.8l0,26.4h-38.1 M1150.4,90.2h48.7 M1150.4,95.2h48.7 M1123.2,225.4h43.6 M1166.7,220.4h-43.6v48.1"
	/>
<path class="st0" d="M1123.2,230.4h43.6v-51.8 M1199.1,178.6h-48.7V85.2h48.7 M412.4,0v39.7 M263.8,127.2h88.5 M770.5,43.5l71,0.2V0
	 M954.9,149.9v94.9 M1123.2,0v70.9h-24.4 M841.5,268.5v-68.8h-71 M50.1,158.6v51 M426,48.7v59.6h-19.2v34.9 M519.5,161.1v-33.6h73.6
	 M621.8,0v66.7 M621.8,230.4v38.1 M718.4,133.7h-32.6v49.3h-25 M111.6,219.5v49 M111.6,0v27.6"/>
<circle class="st0" cx="111.6" cy="74.2" r="5.3"/>
<circle class="st0" cx="319.8" cy="31.4" r="5.3"/>
<circle class="st0" cx="397.4" cy="78.3" r="5.3"/>
<circle class="st0" cx="564" cy="170.6" r="5.3"/>
<circle class="st0" cx="747.3" cy="130.9" r="5.3"/>
<circle class="st0" cx="986.8" cy="207.6" r="5.3"/>
<circle class="st0" cx="1171.7" cy="25" r="5.3"/>
<circle class="st0" cx="253.8" cy="202" r="5.3"/>
<circle class="st0" cx="337.2" cy="206" r="5.3"/>
<circle class="st0" cx="627.1" cy="193" r="5.3"/>
<circle class="st0" cx="551.7" cy="68.1" r="5.3"/>
<circle class="st0" cx="735.4" cy="27.8" r="5.3"/>
<circle class="st0" cx="731.6" cy="244.8" r="5.3"/>
<circle class="st0" cx="853.9" cy="175.1" r="5.3"/>
<circle class="st0" cx="1003.3" cy="106.4" r="5.3"/>
<circle class="st0" cx="1127.5" cy="128.1" r="5.3"/>
<circle class="st0" cx="1094.5" cy="228.4" r="5.3"/>
<circle class="st0" cx="1176.4" cy="245.5" r="5.3"/>
<circle class="st0" cx="93.4" cy="176.9" r="5.3"/>
<circle class="st0" cx="22.8" cy="121.9" r="5.3"/>
<path class="st0" d="M16.8,33.3V46 M17.9,206v12.7 M220.6,97.8v12.7 M187.2,23.6v12.7 M190.1,208.2l0,12.7 M445.6,115.5v12.7
	 M309.6,96.4v12.7 M485.6,17v12.7 M511.1,199.6v12.7 M615.5,96.5v12.7 M795.6,77.1v12.7 M851.7,111.5v12.7 M801.9,231.4l0,12.7
	 M954.2,23.5v12.7 M1082.7,62.2v12.7 M647.3,14.8v12.7 M1133.5,186.7v12.7 M1174.2,115.8v12.7 M1044,157.3l0,12.7 M1026.5,232.7
	v12.7 M222.2,239h-67.1v-47.9h-32.3"/>
</svg>
